<svg xmlns="http://www.w3.org/2000/svg" xmlns:xlink="http://www.w3.org/1999/xlink" width="1024" height="720" viewBox="0 0 270.93 190.498"><style><![CDATA[.B{fill:#fae740}.C{fill:#fff}.D{fill:#1c1c1d}.E{fill:#404042}.F{fill:#9b9669}.G{fill:#8f8375}.H{fill:#0a090d}.I{fill:#353c33}.J{fill:#151418}.K{fill:#3f3d56}]]></style><defs><linearGradient id="A" x1="144.891" y1="259.034" x2="143.784" y2="182.64" gradientUnits="userSpaceOnUse"><stop offset="0" stop-color="#5e5e79"/><stop offset="1" stop-color="#353545" stop-opacity="0"/></linearGradient><linearGradient id="B" x1="184.14" y1="296.904" x2="181.533" y2="153.863" gradientUnits="userSpaceOnUse"><stop offset="0" stop-color="#5e5e79"/><stop offset="1" stop-color="#292935" stop-opacity="0"/></linearGradient><linearGradient id="C" x1="129.981" y1="258.79" x2="129.05" y2="210.963" gradientUnits="userSpaceOnUse"><stop offset="0" stop-color="#333342"/><stop offset="1" stop-color="#5d5d78" stop-opacity="0"/></linearGradient><path id="D" d="M98.113 328.565h1.656v1.656h-1.656z"/><path id="E" d="M157.268 325.06h1.838v1.838h-1.838z"/><path id="F" d="M197.116 335.42h2.19v2.393h-2.19z"/><path id="G" d="M175.897 339.246h2.19v2.078h-2.19z"/><path id="H" d="M136.194 327.016h1.943v1.73h-1.943z"/><path id="I" d="M139.703 359.2h1.943v3.266h-1.943z"/><path id="J" d="M246.156 327.88h2.83v3.093h-2.83z"/><path id="K" d="M26.6 240.914a13.038 13.038 0 0 1-21.723 13.798 13.038 13.038 0 1 0 21.723-13.798z"/><path id="L" d="M209.067 278.8h16.404v.53h-16.404z"/></defs><g transform="translate(0 -106.5)"><path d="M-.74 106.943h272.157v191.982H-.74z" fill="#2a2a36"/><path d="M149.288 198.394l28.216 8.535 30.386-8.214 29.843 8.856 20.076-8.213 17.558 10.143.354 76.665-275.4.302-.61-83.19 8.955 4.53 14.198-4.41 17.363 3.854 16.82-8.856 7.596 2.892 23.332 5.643 18.45-6.607 17.363 6.286z" fill="url(#A)"/><path d="M60.51 208.194L43.69 219.76l-14.65-4.82-15.508 4.575-10.617-6.748-5.537 3.362-.325 81.927h275.19V217.2l-10.982-8.04-20.075 10.924-29.84-11.567-30.384 10.925-28.214-11.246-25.5 10.924-17.362-8.997-18.447 9.318-23.33-8.354z" fill="url(#B)"/><path d="M61.542 218.7L44.8 230.563l-14.58-4.943-15.674 12.23-9.708-7.285-5.45 4.1v53.08c0 7.448.24 13.445.537 13.445h272.36v-73.252l-10.93-8.248-19.98 11.205-29.702-11.865-30.242 11.206-28.082-11.535-25.38 11.205-17.28-9.228-18.36 9.558-23.22-8.57z" fill="url(#C)"/><path d="M-.11 279.84h271.913v11.958H-.11z" fill="#454547"/><path d="M-.227 291.338h272.316v6.14H-.227z" fill="#262626"/><path d="M236.723 218.613v5.223h-5.257V279.7l40.94.006v-35.673h-5.885v-6.504h-2v-6.603h-6.224v.06h-2.85v-7.16h-7.152v-5.223h-3.765zm-81.35 4.55v4.396h-14.26v52.363h22.465v-52.363h-5.38v-4.39h-.942v-.006zm-145.148 2.342v3.444H7.48v3.444H4.32v3.563H-.764v5.618h.07v38.054h29.372V241.53h-.138v-5.57h-4.842v-3.56h-2.693v-3.444H17.57V225.5h-4.377v-.007zm122.48 1.392v4.107h-13.322v48.918h20.988v-48.918h-5.027V226.9h-.88v-.006zm-22.26 2.197v3.936h-15.12v20.936h-3.925v-4.727h-1.46v-4.8h-4.523v.043h-2.07v-5.204h-5.198v-3.796h-8.404v3.796h-3.52v-.086h-7.452v-5h-4.93v-.027h-3.12v-3.124H48.88V231h-6.484v3.152H36.51v5.028h-7.382v40.6h36.796v.086l29.403.005v.028h23.823v-46.892h-5.706v-3.932h-1v-.006zm66.396 2.232v3.783h-12.27v45.06h19.09v.202h23.023v-30.612h-.108v-4.476h-3.795v-2.862h-2.11v-2.767h-2.692v-2.767h-3.43v-.006h-2.326v2.767h-2.154v2.767h-2.477v2.863h-3.687v-10.17h-4.63v-3.78h-.8v-.003zm45.49 8.387v5.162H207.72v35.26h23.022v-35.26h-5.515v-5.156h-.965v-.006z" fill="#3c3c3c"/><g transform="matrix(1.000096 0 0 .93854 -.02223 -60.204115)"><g class="E"><path d="M105.89 322.216h1.288v3.22h-1.288z"/><path d="M96.134 325.345h10.95v37.27h-10.95z"/></g><path d="M107.085 325.345h4.417v37.27h-4.417z" class="D"/><g class="B"><use xlink:href="#D"/><use xlink:href="#D" x="2.667"/></g><use xlink:href="#D" x="5.337" class="C"/><g class="B"><path d="M98.16 332.338h1.656v1.656H98.16z"/><use xlink:href="#D" x="2.714" y="3.773"/><use xlink:href="#D" x="5.383" y="3.773"/></g><use xlink:href="#D" x="0.092" y="7.545" class="C"/><g class="B"><use xlink:href="#D" x="2.76" y="7.545"/><use xlink:href="#D" x="5.429" y="7.545"/></g><path d="M98.25 339.884h1.656v1.656H98.25z" class="F"/><use xlink:href="#D" x="2.807" y="11.319" class="C"/><g class="B"><use xlink:href="#D" x="5.475" y="11.319"/><use xlink:href="#D" x="0.184" y="15.092"/><use xlink:href="#D" x="2.852" y="15.092"/></g><use xlink:href="#D" x="5.521" y="15.092" class="C"/><path d="M98.343 347.43H100v1.656h-1.656z" class="B"/><use xlink:href="#D" x="2.897" y="18.865" class="C"/><g class="B"><use xlink:href="#D" x="5.567" y="18.865"/><path d="M98.39 351.203h1.656v1.656H98.39z"/><use xlink:href="#D" x="2.944" y="22.638"/></g><use xlink:href="#D" x="5.613" y="22.638" class="F"/><use xlink:href="#D" x="0.322" y="26.411" class="C"/><use xlink:href="#D" x="2.99" y="26.411" class="B"/><path d="M101.103 359.393h1.656v3.13h-1.656z" class="G"/><use xlink:href="#D" x="5.659" y="26.411" class="B"/><path d="M107.085 322.22h.736v3.3h-.736z" class="D"/><g class="E"><path d="M12.373 336.554h1.178v3.303h-1.178z"/><path d="M3.453 339.833h10.014v22.396H3.453z"/></g><path d="M13.467 339.833h4.04v22.396h-4.04z" class="D"/><path d="M5.43 343.272h1.515v1.656H5.43zm2.44 0h1.515v1.656H7.87zm2.44 0h1.515v1.656H10.3z" class="B"/><path d="M5.472 347.045h1.515v1.656H5.472z" class="C"/><path d="M7.913 347.045h1.515v1.656H7.913z" class="B"/><path d="M10.353 347.045h1.515v1.656h-1.515z" class="C"/><path d="M5.514 350.818H7.03v1.656H5.514z" class="B"/><path d="M7.955 350.818H9.47v1.656H7.955z" class="C"/><path d="M10.395 350.818H11.9v1.656h-1.515zM5.557 354.6H7.07v1.656H5.557zm2.44 0h1.515v1.656H7.997z" class="B"/><path d="M7.997 359.008h1.515v3.13H7.997z" class="G"/><path d="M10.437 354.59h1.515v1.656h-1.515z" class="B"/><path d="M13.467 336.558h.673v3.3h-.673z" class="D"/><g class="E"><path d="M17.83 328.608h13.313v4.34H17.83z"/><path d="M17.876 332.915h13.158v29.43H17.876z"/></g><path d="M31.034 332.915h5.308v29.43h-5.308z" class="D"/><path d="M20.474 337.435h2v2.177h-2zm3.206 0h2v2.177h-2z" class="B"/><path d="M26.887 337.435h2v2.177h-2z" class="C"/><path d="M20.53 342.392h2v2.177h-2zm3.206 0h2v2.177h-2zm3.207 0h2v2.177h-2zm-6.358 4.958h2v2.177h-2z" class="B"/><path d="M23.79 347.35h2v2.177h-2z" class="C"/><path d="M26.998 347.35h2v2.177h-2zm-6.358 4.958h2v2.177h-2z" class="B"/><path d="M23.847 352.308h2v2.177h-2z" class="C"/><path d="M23.847 358.112h2v4.11h-2z" class="G"/><path d="M27.053 352.308h2v2.177h-2z" class="B"/><path d="M31.034 328.612h5.22v4.35h-5.22z" class="D"/><path d="M21.027 325.855h7.064v2.752h-7.064z" class="E"/><path d="M28 325.86h5.22v2.75H28z" class="D"/><path d="M23.013 323.195h3.62v2.752h-3.62z" class="E"/><path d="M26.51 323.2h5.007v2.75H26.51z" class="D"/><path d="M24.74 320.535h1.866v2.752H24.74z" class="E"/><path d="M26.524 320.54h2.835v2.75h-2.835z" class="D"/><path d="M69.192 325.315h10.95v37.27h-10.95z" class="E"/><path d="M80.143 325.315h4.417v37.27h-4.417z" class="D"/><g class="B"><path d="M71.17 328.535h1.656v1.656H71.17zm2.67 0h1.656v1.656H73.84z"/><use xlink:href="#D" x="-21.605" y="-0.03"/><use xlink:href="#D" x="-26.897" y="3.743"/><use xlink:href="#D" x="-24.228" y="3.743"/><path d="M76.554 332.308H78.2v1.656h-1.656z"/></g><use xlink:href="#D" x="-26.851" y="7.515" class="F"/><path d="M73.93 336.08h1.656v1.656H73.93z" class="C"/><g class="B"><path d="M76.6 336.08h1.656v1.656H76.6z"/><use xlink:href="#D" x="-26.805" y="11.289"/><use xlink:href="#D" x="-24.136" y="11.289"/><use xlink:href="#D" x="-21.467" y="11.289"/><use xlink:href="#D" x="-26.759" y="15.062"/><use xlink:href="#D" x="-24.09" y="15.062"/></g><use xlink:href="#D" x="-21.421" y="15.062" class="C"/><path d="M71.4 347.4h1.656v1.656H71.4z" class="B"/><path d="M74.07 347.4h1.656v1.656H74.07z" class="F"/><g class="B"><use xlink:href="#D" x="-21.375" y="18.835"/><use xlink:href="#D" x="-26.666" y="22.608"/><use xlink:href="#D" x="-23.998" y="22.608"/><use xlink:href="#D" x="-21.329" y="22.608"/><use xlink:href="#D" x="-26.62" y="26.381"/><path d="M74.16 354.946h1.656v1.656H74.16z"/></g><path d="M74.16 359.363h1.656v3.13H74.16z" class="G"/><path d="M76.83 354.946h1.656v1.656H76.83z" class="C"/><path d="M80.07 338.793h10.95v23.794H80.07z" class="E"/><path d="M91.02 338.793h4.417v23.794H91.02z" class="D"/><use xlink:href="#D" x="-15.881" y="11.477" class="B"/><path d="M84.9 340.042h1.656v1.656H84.9z" class="F"/><path d="M87.57 340.042h1.656v1.656H87.57z" class="B"/><use xlink:href="#D" x="-15.835" y="15.25" class="C"/><g class="B"><use xlink:href="#D" x="-13.166" y="15.25"/><use xlink:href="#D" x="-10.497" y="15.25"/><use xlink:href="#D" x="-15.789" y="19.023"/><use xlink:href="#D" x="-13.12" y="19.023"/><use xlink:href="#D" x="-10.451" y="19.023"/><path d="M82.37 351.36h1.656v1.656H82.37z"/></g><path d="M85.04 351.36h1.656v1.656H85.04z" class="C"/><use xlink:href="#D" x="-10.405" y="22.795" class="B"/><path d="M85.223 359.367h1.656v3.13h-1.656z" class="G"/><g class="E"><path d="M80.07 334.455h7.796v4.864H80.07z"/><path d="M79.886 330.09h6.645v4.733h-6.645z"/></g><g class="D"><path d="M87.708 334.455h3.957v4.47h-3.957z"/><path d="M86.386 330.05h4v4.47h-4z"/></g><use xlink:href="#D" x="-18.831" y="3.717" class="C"/><g class="B"><use xlink:href="#D" x="-15.979" y="3.717"/><use xlink:href="#D" x="-18.785" y="7.49"/><path d="M82.18 336.055h1.656v1.656H82.18zm2.67 0h1.656v1.656H84.85zm-2.48 18.987h1.656v1.656H82.37zm2.67 0h1.656v1.656H85.04z"/><use xlink:href="#D" x="-10.405" y="26.477"/><use xlink:href="#D" x="-18.726" y="11.289"/><use xlink:href="#D" x="-18.68" y="15.062"/><use xlink:href="#D" x="-18.726" y="18.915"/></g><use xlink:href="#D" x="-18.68" y="22.687" class="F"/><use xlink:href="#D" x="-18.68" y="26.499" class="B"/><path d="M72.562 321.83h5v3.55h-5z" class="E"/><path d="M77.497 321.83h2.477v3.615h-2.477z" class="D"/><path d="M36.737 325.236H65.04v37.27H36.737z" class="E"/><path d="M65.04 325.236h4.417v37.27H65.04z" class="D"/><g class="B"><path d="M56.07 328.456h1.656v1.656H56.07z"/><use xlink:href="#D" x="-39.376" y="-0.109"/><use xlink:href="#D" x="-36.707" y="-0.109"/><use xlink:href="#D" x="-41.998" y="3.665"/></g><use xlink:href="#D" x="-39.33" y="3.665" class="C"/><g class="B"><use xlink:href="#D" x="-36.661" y="3.665"/><path d="M56.16 336.002h1.656v1.656H56.16zm2.67 0h1.656v1.656H58.83z"/><use xlink:href="#D" x="-36.615" y="7.437"/><use xlink:href="#D" x="-41.906" y="11.21"/><use xlink:href="#D" x="-39.238" y="11.21"/><path d="M61.544 339.775H63.2v1.656h-1.656z"/><use xlink:href="#D" x="-41.86" y="14.983"/></g><path d="M58.92 343.548h1.656v1.656H58.92z" class="F"/><g class="B"><path d="M61.6 343.548h1.656v1.656H61.6zm-5.3 3.772h1.656v1.656H56.3z"/><use xlink:href="#D" x="-39.146" y="18.755"/><use xlink:href="#D" x="-36.477" y="18.755"/><path d="M56.345 351.094H58v1.656h-1.656z"/></g><use xlink:href="#D" x="-39.1" y="22.529" class="C"/><use xlink:href="#D" x="-36.431" y="22.529" class="B"/><path d="M56.39 354.867h1.656v1.656H56.39z" class="C"/><path d="M59.06 354.867h1.656v1.656H59.06z" class="B"/><path d="M59.06 359.284h1.656v3.13H59.06z" class="C"/><g class="B"><use xlink:href="#D" x="-36.385" y="26.302"/><use xlink:href="#D" x="-50.195" y="-0.109"/><use xlink:href="#D" x="-47.526" y="-0.109"/></g><use xlink:href="#D" x="-44.858" y="-0.109" class="C"/><g class="B"><use xlink:href="#D" x="-50.149" y="3.665"/><use xlink:href="#D" x="-47.48" y="3.665"/><path d="M53.3 332.23h1.656v1.656H53.3zm-5.3 3.772h1.656v1.656H48zm2.68 0h1.656v1.656H50.68z"/></g><use xlink:href="#D" x="-44.766" y="7.437" class="F"/><use xlink:href="#D" x="-50.057" y="11.21" class="B"/><use xlink:href="#D" x="-47.388" y="11.21" class="C"/><g class="B"><use xlink:href="#D" x="-44.72" y="11.21"/><use xlink:href="#D" x="-50.011" y="14.983"/><path d="M50.77 343.548h1.656v1.656H50.77z"/></g><path d="M53.44 343.548h1.656v1.656H53.44z" class="C"/><use xlink:href="#D" x="-49.965" y="18.755" class="B"/><use xlink:href="#D" x="-47.296" y="18.755" class="C"/><g class="B"><use xlink:href="#D" x="-44.628" y="18.755"/><use xlink:href="#D" x="-49.919" y="22.529"/><use xlink:href="#D" x="-47.25" y="22.529"/><path d="M53.53 351.094h1.656v1.656H53.53z"/></g><path d="M48.24 354.867h1.656v1.656H48.24z" class="C"/><g class="B"><path d="M50.91 354.867h1.656v1.656H50.91z"/><use xlink:href="#D" x="-44.536" y="26.302"/><use xlink:href="#D" x="-58.375" y="-0.109"/></g><use xlink:href="#D" x="-55.707" y="-0.109" class="F"/><g class="B"><use xlink:href="#D" x="-53.038" y="-0.109"/><use xlink:href="#D" x="-58.329" y="3.665"/><use xlink:href="#D" x="-55.661" y="3.665"/></g><path d="M45.12 332.23h1.656v1.656H45.12z" class="C"/><g class="B"><path d="M39.83 336.002h1.656v1.656H39.83zm2.67 0h1.656v1.656H42.5z"/><use xlink:href="#D" x="-52.946" y="7.437"/></g><use xlink:href="#D" x="-58.237" y="11.21" class="C"/><g class="B"><path d="M42.545 339.775H44.2v1.656h-1.656z"/><use xlink:href="#D" x="-52.9" y="11.21"/><use xlink:href="#D" x="-58.191" y="14.983"/><path d="M42.6 343.548h1.656v1.656H42.6zm2.67 0h1.656v1.656H45.26z"/><use xlink:href="#D" x="-58.145" y="18.755"/></g><use xlink:href="#D" x="-55.476" y="18.755" class="F"/><g class="B"><use xlink:href="#D" x="-52.808" y="18.755"/><use xlink:href="#D" x="-58.099" y="22.529"/><use xlink:href="#D" x="-55.43" y="22.529"/><path d="M45.35 351.094h1.656v1.656H45.35zm-5.3 3.773h1.656v1.656H40.06zm2.67 0h1.656v1.656H42.73z"/><use xlink:href="#D" x="-52.716" y="26.302"/></g><path d="M59.06 359.284h1.656v3.13H59.06zm-16 0h1.656v3.13H43.07z" class="G"/><path d="M43.248 320.62h15.3v4.7h-15.3z" class="E"/><path d="M58.468 320.646h4.417v4.787h-4.417z" class="D"/><path d="M48.44 317.73h5.72v2.992h-5.72z" class="E"/><path d="M54.134 317.754h1.652v3.078h-1.652z" class="D"/><g class="E"><path d="M165.896 318.016h1.43v3.574h-1.43z"/><path d="M155.073 321.487h12.15v41.352h-12.15z"/></g><path d="M167.223 321.487h4.9v41.352h-4.9z" class="D"/><use xlink:href="#E" class="C"/><g class="B"><use xlink:href="#E" x="2.962"/><path d="M163.2 325.06h1.838v1.838H163.2z"/><use xlink:href="#E" x="0.052" y="4.187"/></g><use xlink:href="#E" x="3.012" y="4.187" class="C"/><use xlink:href="#E" x="5.972" y="4.187" class="B"/><use xlink:href="#E" x="0.102" y="8.373" class="F"/><g class="B"><use xlink:href="#E" x="3.062" y="8.373"/><use xlink:href="#E" x="6.024" y="8.373"/><use xlink:href="#E" x="0.152" y="12.56"/><use xlink:href="#E" x="3.114" y="12.56"/></g><use xlink:href="#E" x="6.075" y="12.56" class="C"/><g class="B"><use xlink:href="#E" x="0.204" y="16.746"/><use xlink:href="#E" x="3.165" y="16.746"/><use xlink:href="#E" x="6.126" y="16.746"/></g><use xlink:href="#E" x="0.255" y="20.932" class="C"/><use xlink:href="#E" x="3.216" y="20.932" class="B"/><use xlink:href="#E" x="6.177" y="20.932" class="C"/><g class="B"><use xlink:href="#E" x="0.306" y="25.118"/><use xlink:href="#E" x="3.267" y="25.118"/></g><use xlink:href="#E" x="6.228" y="25.118" class="F"/><use xlink:href="#E" x="0.357" y="29.305" class="B"/><use xlink:href="#E" x="3.318" y="29.305" class="C"/><path d="M160.586 359.266h1.838v3.472h-1.838z" class="G"/><use xlink:href="#E" x="6.279" y="29.305" class="B"/><path d="M167.223 318.02h.817v3.672h-.817z" class="D"/><g class="E"><path d="M207.147 325.713h1.702v4.772h-1.702z"/><path d="M194.26 330.45h14.47v32.36h-14.47z"/></g><path d="M208.728 330.45h5.836v32.36h-5.836z" class="D"/><g class="B"><use xlink:href="#F"/><use xlink:href="#F" x="3.526"/></g><g class="C"><use xlink:href="#F" x="7.052"/><use xlink:href="#F" x="0.061" y="5.45"/></g><g class="B"><use xlink:href="#F" x="3.587" y="5.45"/><use xlink:href="#F" x="7.114" y="5.45"/></g><use xlink:href="#F" x="0.122" y="10.902" class="F"/><use xlink:href="#F" x="3.648" y="10.902" class="B"/><g class="C"><use xlink:href="#F" x="7.184" y="10.902"/><use xlink:href="#F" x="0.182" y="16.354"/></g><use xlink:href="#F" x="3.708" y="16.354" class="B"/><path d="M200.824 358.156h2.19v4.52h-2.19z" class="G"/><use xlink:href="#F" x="7.234" y="16.354" class="B"/><path d="M208.728 325.717h.973v4.782h-.973z" class="D"/><g class="E"><path d="M172.99 330.82h14.64v4.143h-14.64z"/><path d="M173.04 334.932h14.47v28.093h-14.47z"/></g><path d="M187.5 334.932h5.837v28.093H187.5z" class="D"/><use xlink:href="#G" class="C"/><g class="B"><use xlink:href="#G" x="3.527"/><use xlink:href="#G" x="7.053"/><use xlink:href="#G" x="0.061" y="4.734"/><use xlink:href="#G" x="3.587" y="4.734"/></g><use xlink:href="#G" x="7.113" y="4.734" class="C"/><use xlink:href="#G" x="0.123" y="9.466" class="F"/><g class="B"><use xlink:href="#G" x="3.648" y="9.466"/><use xlink:href="#G" x="7.175" y="9.466"/></g><use xlink:href="#G" x="0.183" y="14.198" class="C"/><use xlink:href="#G" x="3.709" y="14.198" class="B"/><path d="M179.606 358.985h2.19v3.925h-2.19z" class="G"/><use xlink:href="#G" x="7.235" y="14.198" class="B"/><path d="M187.5 330.824h5.74v4.15h-5.74z" class="D"/><path d="M176.505 328.193h7.768v2.627h-7.768z" class="E"/><path d="M184.162 328.198h5.74v2.626h-5.74z" class="D"/><path d="M178.7 325.653h3.98v2.627h-3.98z" class="E"/><path d="M182.536 325.66h5.506v2.626h-5.506z" class="D"/><path d="M180.59 323.114h2.052v2.627h-2.052z" class="E"/><path d="M182.55 323.12h3.117v2.626h-3.117z" class="D"/><path d="M113.512 323.654h33.21v38.908h-33.21z" class="E"/><path d="M146.72 323.654h5.183v38.908h-5.183z" class="D"/><g class="B"><use xlink:href="#H"/><use xlink:href="#H" x="3.131"/><use xlink:href="#H" x="6.262"/><use xlink:href="#H" x="0.054" y="3.939"/></g><use xlink:href="#H" x="3.186" y="3.939" class="C"/><g class="B"><path d="M142.5 330.955h1.943v1.73H142.5z"/><use xlink:href="#H" x="0.108" y="7.878"/><use xlink:href="#H" x="3.239" y="7.878"/><use xlink:href="#H" x="6.37" y="7.878"/></g><use xlink:href="#H" x="0.162" y="11.817" class="F"/><g class="B"><use xlink:href="#H" x="3.293" y="11.817"/><use xlink:href="#H" x="6.424" y="11.817"/><path d="M136.4 342.77h1.943v1.73H136.4z"/><use xlink:href="#H" x="3.346" y="15.754"/><use xlink:href="#H" x="6.478" y="15.754"/><use xlink:href="#H" x="0.27" y="19.684"/><use xlink:href="#H" x="3.401" y="19.684"/><use xlink:href="#H" x="6.532" y="19.684"/><use xlink:href="#H" x="0.324" y="23.634"/><use xlink:href="#H" x="3.456" y="23.634"/><use xlink:href="#H" x="6.586" y="23.634"/><use xlink:href="#H" x="0.378" y="27.572"/></g><g class="C"><use xlink:href="#H" x="3.509" y="27.572"/><use xlink:href="#I"/></g><g class="B"><use xlink:href="#H" x="6.64" y="27.572"/><use xlink:href="#H" x="-9.564"/><use xlink:href="#H" x="-6.432"/></g><use xlink:href="#H" x="-3.301" class="C"/><use xlink:href="#H" x="-9.51" y="3.939" class="F"/><g class="B"><use xlink:href="#H" x="-6.378" y="3.939"/><use xlink:href="#H" x="-3.247" y="3.939"/><use xlink:href="#H" x="-9.456" y="7.878"/></g><use xlink:href="#H" x="-6.324" y="7.878" class="F"/><path d="M133 334.894h1.943v1.73H133z" class="B"/><use xlink:href="#H" x="-9.402" y="11.817" class="C"/><g class="B"><use xlink:href="#H" x="-6.27" y="11.817"/><use xlink:href="#H" x="-3.139" y="11.817"/><use xlink:href="#H" x="-9.348" y="15.754"/><use xlink:href="#H" x="-6.216" y="15.754"/><use xlink:href="#H" x="-3.084" y="15.754"/><path d="M126.9 346.7h1.943v1.73H126.9z"/><use xlink:href="#H" x="-6.164" y="19.684"/></g><use xlink:href="#H" x="-3.031" y="19.684" class="C"/><use xlink:href="#H" x="-9.24" y="23.634" class="B"/><use xlink:href="#H" x="-6.109" y="23.634" class="F"/><use xlink:href="#H" x="-2.977" y="23.634" class="B"/><use xlink:href="#H" x="-9.186" y="27.572" class="F"/><g class="B"><use xlink:href="#H" x="-6.054" y="27.572"/><use xlink:href="#H" x="-2.924" y="27.572"/></g><use xlink:href="#H" x="-19.162" class="C"/><g class="B"><use xlink:href="#H" x="-16.03"/><use xlink:href="#H" x="-12.899"/><use xlink:href="#H" x="-19.108" y="3.939"/><use xlink:href="#H" x="-15.976" y="3.939"/><use xlink:href="#H" x="-12.844" y="3.939"/><use xlink:href="#H" x="-19.054" y="7.878"/></g><use xlink:href="#H" x="-15.922" y="7.878" class="F"/><g class="B"><use xlink:href="#H" x="-12.791" y="7.878"/><use xlink:href="#H" x="-19" y="11.817"/><use xlink:href="#H" x="-15.868" y="11.817"/><use xlink:href="#H" x="-12.737" y="11.817"/><use xlink:href="#H" x="-18.946" y="15.754"/><use xlink:href="#H" x="-15.814" y="15.754"/></g><use xlink:href="#H" x="-12.684" y="15.754" class="C"/><g class="B"><use xlink:href="#H" x="-18.892" y="19.684"/><use xlink:href="#H" x="-15.76" y="19.684"/><use xlink:href="#H" x="-12.629" y="19.684"/><use xlink:href="#H" x="-18.838" y="23.634"/></g><use xlink:href="#H" x="-15.706" y="23.634" class="C"/><g class="B"><use xlink:href="#H" x="-12.574" y="23.634"/><path d="M117.4 354.588h1.943v1.73H117.4z"/><use xlink:href="#H" x="-15.654" y="27.572"/><use xlink:href="#H" x="-12.521" y="27.572"/></g><g class="G"><use xlink:href="#I"/><use xlink:href="#I" x="-18.76"/></g><path d="M121.15 318.836h17.94v4.908h-17.94z" class="E"/><path d="M139.01 318.862h5.183v4.997h-5.183z" class="D"/><path d="M127.244 315.817h6.7v3.124h-6.7z" class="E"/><path d="M133.923 315.843h1.94v3.213h-1.94z" class="D"/><path d="M215.203 325.153h10.95v37.27h-10.95z" class="E"/><path d="M226.154 325.153h4.417v37.27h-4.417z" class="D"/><g class="B"><use xlink:href="#D" x="119.069" y="-0.191"/><use xlink:href="#D" x="121.737" y="-0.191"/><use xlink:href="#D" x="124.407" y="-0.191"/></g><use xlink:href="#D" x="119.115" y="3.582" class="F"/><g class="B"><use xlink:href="#D" x="121.783" y="3.582"/><use xlink:href="#D" x="124.452" y="3.582"/><use xlink:href="#D" x="119.161" y="7.355"/><use xlink:href="#D" x="121.829" y="7.355"/></g><g class="C"><use xlink:href="#D" x="124.497" y="7.355"/><use xlink:href="#D" x="119.207" y="11.128"/></g><g class="B"><use xlink:href="#D" x="121.875" y="11.128"/><use xlink:href="#D" x="124.544" y="11.128"/><use xlink:href="#D" x="119.253" y="14.901"/><use xlink:href="#D" x="121.921" y="14.901"/><use xlink:href="#D" x="124.59" y="14.901"/><use xlink:href="#D" x="119.299" y="18.675"/><use xlink:href="#D" x="121.967" y="18.675"/></g><use xlink:href="#D" x="124.637" y="18.675" class="C"/><use xlink:href="#D" x="119.345" y="22.447" class="B"/><use xlink:href="#D" x="122.013" y="22.447" class="F"/><g class="B"><use xlink:href="#D" x="124.682" y="22.447"/><use xlink:href="#D" x="119.391" y="26.22"/><use xlink:href="#D" x="122.059" y="26.22"/></g><path d="M220.172 359.202h1.656v3.13h-1.656z" class="G"/><use xlink:href="#D" x="124.727" y="26.22" class="B"/><path d="M226.08 338.632h10.95v23.794h-10.95z" class="E"/><path d="M237.032 338.632h4.417v23.794h-4.417z" class="D"/><g class="B"><use xlink:href="#D" x="130.131" y="11.315"/><use xlink:href="#D" x="132.799" y="11.315"/><use xlink:href="#D" x="135.467" y="11.315"/><path d="M228.3 343.654h1.656v1.656H228.3z"/><use xlink:href="#D" x="132.845" y="15.089"/><use xlink:href="#D" x="135.514" y="15.089"/><use xlink:href="#D" x="130.223" y="18.862"/></g><use xlink:href="#D" x="132.891" y="18.862" class="F"/><g class="B"><use xlink:href="#D" x="135.56" y="18.862"/><use xlink:href="#D" x="130.269" y="22.635"/><use xlink:href="#D" x="132.937" y="22.635"/><use xlink:href="#D" x="135.607" y="22.635"/></g><path d="M231.234 359.206h1.656v3.13h-1.656z" class="G"/><g class="E"><path d="M226.08 334.294h7.796v4.864h-7.796z"/><path d="M225.897 329.93h6.645v4.733h-6.645z"/></g><g class="D"><path d="M233.72 334.294h3.957v4.47h-3.957z"/><path d="M232.398 329.9h4v4.47h-4z"/></g><g class="B"><use xlink:href="#D" x="127.18" y="3.555"/><use xlink:href="#D" x="130.033" y="3.555"/><use xlink:href="#D" x="127.227" y="7.329"/><use xlink:href="#D" x="130.079" y="7.329"/></g><g class="C"><use xlink:href="#D" x="132.747" y="7.329"/><use xlink:href="#D" x="130.269" y="26.315"/></g><g class="B"><use xlink:href="#D" x="132.937" y="26.315"/><use xlink:href="#D" x="135.607" y="26.315"/></g><use xlink:href="#D" x="127.285" y="11.128" class="F"/><g class="B"><use xlink:href="#D" x="127.331" y="14.901"/><use xlink:href="#D" x="127.285" y="18.753"/><use xlink:href="#D" x="127.331" y="22.535"/><use xlink:href="#D" x="127.331" y="26.338"/></g><path d="M218.573 321.67h5v3.55h-5z" class="E"/><path d="M223.51 321.67h2.477v3.615h-2.477z" class="D"/><g class="E"><path d="M259.12 315.334h2.2v6.168h-2.2z"/><path d="M242.463 321.456h18.7v41.823h-18.7z"/></g><path d="M261.163 321.456h7.543v41.823h-7.543z" class="D"/><use xlink:href="#J" class="F"/><use xlink:href="#J" x="4.557" class="B"/><use xlink:href="#J" x="9.114" class="C"/><use xlink:href="#J" x="0.078" y="7.044" class="B"/><use xlink:href="#J" x="4.634" y="7.044" class="F"/><use xlink:href="#J" x="9.194" y="7.044" class="B"/><g class="C"><use xlink:href="#J" x="0.157" y="14.09"/><use xlink:href="#J" x="4.714" y="14.09"/></g><g class="B"><use xlink:href="#J" x="9.271" y="14.09"/><use xlink:href="#J" x="0.234" y="21.136"/><use xlink:href="#J" x="4.794" y="21.136"/></g><path d="M250.95 357.264h2.83v5.843h-2.83z" class="G"/><use xlink:href="#J" x="9.35" y="21.136" class="C"/><path d="M261.163 315.34h1.257v6.18h-1.257z" class="D"/></g><path d="M27.36 271.388h2.773v14.264h.748v-14.264h2.46v-4.233h-5.98z" class="H"/><circle r="13.037" cy="249.621" cx="16.912" class="I"/><use xlink:href="#K" opacity=".2"/><path d="M16.267 286.583l.68-36.962h.036l.644 36.962z" class="J"/><path d="M19.02 269.184l.3.57-2.155 1.135-.3-.57z" class="K"/><g class="H"><path d="M54.86 280.912h2.558v5.027h.53v-5.027h9.965v5.027h.53v-5.027h2.823v-.53H54.86zm.033-2.112h16.404v.53H54.893zm0-1.323h16.404v.53H54.893zm0-1.323h16.404v.53H54.893zm167.194 9.786h.53v-5.027h2.823v-.53h-16.404v.53h2.558v5.027h.53v-5.027h9.965z"/><use xlink:href="#L"/><use xlink:href="#L" y="-1.323"/><use xlink:href="#L" y="-2.646"/></g><circle cx="257.151" cy="249.621" r="13.037" class="I"/><use xlink:href="#K" x="240.248" opacity=".2"/><path d="M257.223 249.622l.644 36.962h-1.36l.68-36.962z" class="J"/><path d="M259.26 269.184l.3.57-2.155 1.135-.3-.57z" class="K"/><circle r="9.925" cy="254.74" cx="153.121" class="I"/><path d="M160.503 248.11a9.926 9.926 0 0 1-16.538 10.504 9.926 9.926 0 1 0 16.538-10.504z" opacity=".2"/><path d="M152.63 282.88l.518-28.14h.027l.49 28.14z" class="J"/><path d="M154.726 269.633l.23.434-1.64.864-.23-.434z" class="K"/><path d="M127.84 297.642c-.224-.24-.314-.625-.9-3.857-.438-2.41-.34-3.02.655-4.03.41-.417.425-.458.264-.784-.14-.284-.268-.355-.727-.408-.307-.035-.64-.114-.744-.177s-.354-.115-.56-.118c-.353-.004-.375-.033-.41-.55-.035-.527-.057-.554-.654-.81-1.008-.435-1.1-1.228-.207-1.793l.4-.253.014-2.462c.018-3.334.166-4.32.87-5.84.308-.664.708-1.357.89-1.542.423-.43 1.355-.857 2.588-1.18.538-.142 1.028-.303 1.09-.358s-.037-.454-.23-.923c-.285-.688-.37-1.082-.432-1.99-.003-.045-.117-.117-.254-.16-.388-.12-.294-.39.248-.724s.596-.525.31-1.188-.232-1.325.174-2.103c.532-1.02.845-1.234 2.56-1.752 1.6-.484 2.55-.356 3.416.456.24.225.762.527 1.16.67.63.228.757.328.96.762.128.275.235.773.236 1.107.003.746-.4 1.94-.815 2.355-.2.195-.3.45-.3.698 0 .537-.268 1.08-.803 1.632-.25.256-.436.477-.415.49s.625.202 1.342.42c1.705.52 3.154 1.198 3.87 1.81.788.674 1.587 1.927 3.047 4.78l1.237 2.417.165 2.02c.134 1.638.135 2.116.007 2.53-.32 1.043-.653 1.56-1.23 1.915-.5.302-.682.346-1.5.348-.516.001-1.01.045-1.094.098-.117.072-.032.33.342 1.03.675 1.267.69 1.97.06 2.962-.24.38-.7 1.42-.997 2.31s-.67 1.73-.806 1.86c-.36.35-1.294.413-7.325.493-5.13.068-5.288.064-5.5-.165zm-2.247-11.56c-.06-.152-.12-.173-.22-.077-.075.073-.1.227-.054.342.06.152.12.173.22.077.075-.073.1-.227.054-.342z" fill="#a99e9a"/><path d="M127.946 297.502c-.21-.224-.282-.57-1.002-4.693-.24-1.373-.1-1.986.633-2.778.6-.637.66-.894.356-1.315-.14-.195-.32-.268-.652-.27a2.02 2.02 0 0 1-.865-.241c-.224-.132-.49-.24-.594-.24-.288 0-.338-.284-.18-1.028.26-1.214-.134-1.71-.622-.782-.26.497-.46.6-.72.338-.376-.366-.014-1.175.612-1.368.3-.092.39-.435.23-.85-.078-.2-.096-.546-.044-.83.05-.268.102-1.275.116-2.238.038-2.588.16-3.217.92-4.746.573-1.153.718-1.35 1.228-1.663.568-.35 1.997-.848 2.9-1.014l.463-.084v.5c0 .55.168.69.683.563.34-.083.418-.4.125-.5-.14-.052-.167-.183-.11-.524.046-.28.022-.487-.063-.537-.076-.045-.138-.183-.138-.307 0-.32-.285-.374-.45-.086l-.14.244-.136-.246c-.227-.41-.324-1.242-.145-1.242.093 0 .13.095.1.24-.04.15-.004.24.1.24.09 0 .328-.42.53-.935l.366-.935.545-.06c.405-.045.533-.107.498-.24-.026-.1-.055-.35-.066-.56-.03-.62-.593-1.046-.774-.588-.048.123-.246.18-.614.18-.645 0-.877-.257-.996-1.1-.064-.453-.015-.66.296-1.26.43-.825.622-1.01 1.394-1.348 1.03-.45 1.795-.637 2.586-.637.884 0 1.1.087 1.87.74.3.256.797.53 1.118.616.495.133.616.23.856.692.154.295.28.736.28.98 0 .668-.44 1.866-.88 2.4-.22.266-.362.554-.323.653.137.347-.185 1.06-.73 1.61-.64.647-.692.865-.2.855.47-.01 2.653.695 3.633 1.173 1.006.5 1.86 1.213 2.47 2.094.26.373 1.076 1.834 1.815 3.247l1.345 2.568.182 1.97c.18 1.95.18 1.98-.096 2.86-.212.677-.4.993-.747 1.323-.448.414-.518.437-1.57.504-1.172.075-1.537.16-1.537.357 0 .067.224.557.497 1.087.656 1.274.67 1.83.062 2.747-.25.377-.686 1.396-1.025 2.397-.557 1.644-.612 1.75-.998 1.908-.457.186-5.537.395-9.727.4-2.258.002-2.45-.015-2.653-.233zm7.944-2.78c.1-.276-.024-.52-.195-.418-.15.1-.15.658 0 .658.064 0 .15-.108.194-.24zm-3.34-19.394c-.126-.123-.23.062-.127.225.078.123.108.123.15 0 .03-.084.02-.185-.023-.225zm-.01-3.295c.223-.24.222-.252-.042-.51-.254-.247-.284-.25-.48-.06-.172.167-.184.257-.065.51.174.37.288.382.588.06zm-7.52 14.725c0-.066.053-.12.117-.12s.15.054.194.12-.01.12-.117.12-.194-.054-.194-.12zm5.122-16.142c-.29-.247-.53-.51-.528-.587.003-.196.392-.316.544-.168.193.188.33.15.243-.068-.067-.17-.043-.173.195-.03.34.204.438.558.272.982-.07.18-.143.325-.162.323s-.273-.206-.564-.452z" fill="#8f4e47"/><path d="M128.05 297.525c-.2-.127-.276-.423-.616-2.35-.706-4.004-.7-4.11.273-5.175.6-.656.636-.9.222-1.523-.153-.23-.254-.26-.65-.2-.613.095-.828-.143-.782-.866.02-.3-.02-.532-.092-.532-.17 0-.3.402-.194.646.094.237-.274.413-.468.225-.09-.09-.085-.3.02-.736.194-.785.067-1.588-.264-1.672-.387-.098-.195-.318.455-.52.332-.104.624-.246.648-.316.05-.145-.846-.315-1.12-.213-.198.074-.385-.255-.26-.454.043-.068.07-.905.06-1.86-.02-1.874.075-2.113.48-1.223.212.464.667 1.056.813 1.056.06 0-.007-.148-.618-1.388-.36-.73-.555-1.897-.387-2.32.066-.167.158-.07.418.45.23.46.397.653.54.63.114-.018.243.022.287.1.134.2.345.138.255-.087-.046-.116-.138-.49-.204-.834-.1-.572-.096-.648.175-.93.233-.244.327-.278.452-.162s.138-.006.058-.638c-.16-1.25-.137-1.584.113-1.735.18-.108.26-.1.398.092.164.215.187.204.432-.198.187-.308.368-.443.658-.49l.647-.103c.185-.03.26.037.29.262.024.166.095.364.16.44s.15.417.192.758c.094.77.336.75.388-.03.04-.6.12-.652.552-.427.23.12.316.08.675-.3.485-.514.51-.65.132-.703-.186-.026-.273-.115-.26-.265.035-.404-.43-1.277-.76-1.423-.316-.14-.413-.39-.2-.516.062-.037.15-.28.195-.54s.183-.56.306-.668c.206-.18.23-.182.3-.001.043.108.045.395.006.64-.085.53.195 1.25.6 1.518.23.157.27.284.24.792-.026.48.007.606.158.606.427 0 .598-.846.225-1.11-.252-.177-.27-.857-.037-1.28.118-.214.087-.3-.203-.56-.188-.17-.44-.307-.56-.307s-.22-.054-.22-.12.2-.12.443-.12c.388 0 .438-.034.404-.27-.03-.2.03-.28.228-.308.337-.047.69-.76.418-.847-.094-.03-.343-.232-.552-.447-.38-.4-.81-.66-1.05-.66-.07 0-.235.112-.367.25-.338.352-1.012.28-1.225-.13-.468-.903.126-2.396 1.206-3.03.307-.18.676-.333.82-.338s.44-.096.66-.202.717-.22 1.106-.255c.85-.075 1.346.104 2.125.766.302.257.805.548 1.118.648.438.14.62.278.786.603.45.875.167 2.374-.632 3.354-.225.276-.374.56-.33.628.176.277-.124.92-.71 1.522-.637.654-.756 1.097-.28 1.044.362-.04 2.828.766 3.807 1.245 1.678.82 2.247 1.538 4.203 5.298l1.32 2.538.165 2.028c.153 1.872.15 2.08-.054 2.713-.254.793-.684 1.4-1.162 1.636-.184.09-.825.2-1.425.22s-1.153.115-1.23.2c-.104.1-.002.402.4 1.17.692 1.326.724 1.93.148 2.774-.42.616-.523.856-1.24 2.9-.535 1.522-.388 1.42-2.33 1.623-1.382.145-10.48.175-10.697.036zm7.912-2.83c.12-.433-.176-.712-.374-.353-.073.133-.133.357-.133.5 0 .374.395.26.507-.147zm-8.084-6.973c.18-.425.317-.46.412-.108.038.14.142.23.232.2.252-.08.277-.482.04-.65-.155-.1-.18-.205-.092-.357.135-.235.06-.655-.12-.655-.423 0-1.344.782-1.344 1.142 0 .314.33.79.55.79.1 0 .234-.163.32-.362zm-.583-1.776c.313-.247.548-.47.522-.495-.085-.082-.93.234-1.12.42-.2.196-.25.525-.078.525.06 0 .363-.202.677-.45zm15.364-.577c-.165-.194-.497-.247-.497-.08s.15.26.41.26c.202 0 .217-.03.088-.18zm-13.73-3.275c-.2-.143-.25-.14-.34.017-.165.286.006.444.31.286.256-.133.257-.142.03-.303zm2.64.005c-.04-.04-.148-.044-.238-.01-.1.04-.07.067.075.073.13.005.204-.023.163-.063zm2.918-.197c-.2-.098-.32-.096-.43.008s-.043.14.284.133c.402-.008.41-.016.145-.14zm4.28.075c.15-.04.244-.138.2-.223s.06-.608.21-1.165c.308-1.156.48-3.35.232-2.942a4.97 4.97 0 0 1-.532.638c-.32.33-.4.535-.48 1.207-.052.446-.093 1.01-.09 1.253.003.49-.233.748-.335.368-.035-.13-.194-.296-.352-.366-.267-.118-.293-.222-.368-1.432-.143-2.327-.69-2.834-.843-.78-.072.972-.05 1.373.1 1.92.1.38.227.896.26 1.145l.06.452.825-.002c.454-.001.947-.033 1.096-.072zm-1.254-.486c-.043-.11-.053-.223-.022-.253.1-.096.322.097.322.278 0 .237-.204.22-.3-.024zm-9.152-.677c-.01-.418-.03-.457-.102-.21-.083.28-.042.724.066.724.026 0 .042-.23.035-.513zm-.15-1.023c-.032-.117-.06-.05-.062.15s.023.295.057.213.036-.245.005-.362zm4.386-1.336c0-.36-.196-.627-.46-.627-.2 0-.207.254-.017.658.194.415.477.396.477-.03zm-4.638-.175c-.034-.083-.063-.015-.063.15s.028.234.063.15.034-.22 0-.302zm6.79-.953c.54-.277.6-.585.113-.585-.495 0-.953.332-.764.554.176.206.297.212.65.03zm-1.162-1.275c.002-.08-.17-.34-.38-.573-.387-.428-1-.585-1.17-.304-.107.168.365.884.837 1.27l.387.316.16-.28c.088-.155.163-.347.165-.428zm-9.3 10.19c-.124-.32.018-.635.365-.816.22-.114.246-.09.246.246 0 .417-.192.84-.38.84-.068 0-.17-.122-.23-.27zm5.512-16.025c-.145-.228.043-.264.335-.065l.284.193h-.27c-.148 0-.306-.058-.35-.13z" fill="#5a261e"/><path d="M128.08 297.46c-.14-.102-.325-.874-.635-2.648-.616-3.53-.594-3.834.337-4.76.523-.52.65-.97.435-1.546-.074-.2-.02-.27.297-.387l.387-.142-.1-.94c-.05-.517-.12-.986-.154-1.043-.098-.156-.755.01-1.163.29-.2.138-.362.193-.362.123s.278-.305.62-.52.62-.468.62-.56c.003-.248-.973-.088-1.73.284-.898.442-.947.168-.105-.592.532-.48.73-.593.88-.5.124.076.363.078.67.005.362-.087.485-.182.517-.398.06-.41-.082-.863-.27-.863-.25 0-.788-.606-1.185-1.332l-.868-1.564c-.682-1.215-.706-1.77-.034-.773.264.392.744.923 1.067 1.18.656.523 1.06 1.09 1.06 1.486.001.353.193.45.598.298.19-.07 2.746-.185 5.895-.264l5.9-.233c.328-.1.323-.096-.158-.178-1.038-.176-1.098-.236-1.015-1.01l.197-1.463c.098-.62.188-2.762.14-3.33-.006-.066-.116.013-.246.177-.165.21-.36.3-.65.302-.383.004-.423.042-.54.513-.226.912-.597.995-.74.166-.073-.417-.13-.48-.504-.547a1.26 1.26 0 0 0-.81.118c-.447.225-.738.16-.738-.16 0-.35-.09-.37-.83-.184-.832.21-1.034.154-1.034-.292 0-.4-.767-1.237-1.132-1.237-.386 0-.266-.19.268-.425.276-.12.59-.36.695-.53s.367-.42.58-.552a3.1 3.1 0 0 0 .723-.724c.187-.268.438-.483.564-.483.187 0 .228.097.228.543 0 .535.006.543.393.514.216-.016 1.045.192 1.842.46 2.975 1.007 3.835 1.763 5.344 4.696l1.34 2.465c.542.935.64 1.206.734 2.05l.183 1.517c.242 1.76-.11 3.214-.945 3.895-.33.27-.525.33-1.106.333-.83.006-1.73.16-1.9.323-.076.074.073.475.414 1.112.446.833.533 1.107.53 1.678s-.067.774-.408 1.25c-.247.344-.624 1.22-.96 2.227-.305.913-.63 1.734-.722 1.824-.26.253-2.258.37-7.49.435-3.55.045-4.787.024-4.935-.084zm7.868-2.488a1.36 1.36 0 0 0 .129-.551c0-.26-.05-.31-.274-.28-.287.04-.47.463-.372.853.072.28.357.27.517-.022zm-6.703-4.895c0-.1-.084-.18-.186-.18s-.186.08-.186.18.084.18.186.18.186-.08.186-.18zm-.497-1.388c0-.066-.06-.12-.132-.12s-.097.054-.055.12.1.12.132.12.055-.054.055-.12zm13.2-1.904c-.037-.338.7-.676 1.244-.562l.357.076-.207-.4c-.17-.32-.178-.408-.04-.496a.58.58 0 0 1 .384-.056c.444.103.33-.16-.12-.282-1-.27-1.773-.118-1.773.35 0 .103-.104.25-.23.328-.34.206-.444.867-.18 1.15.276.296.607.227.57-.12zm2.312-2.633c.554-.122.885-.254.885-.355 0-.27-.157-.283-1.06-.09-1.068.228-1.426.357-1.426.517 0 .178.584.152 1.6-.07zm-1.47-2.098c.6-1.216.672-1.478.667-2.123-.006-.76-.336-1.6-.666-1.717-.13-.042-.147.074-.083.536.257 1.86.257 1.862-.2 2.944-.425 1.005-.72 2.11-.5 1.868.06-.066.413-.745.783-1.508zm-6.698-7.923c-.094-.338-.095-.337-.174.13-.044.26-.044.526-.001.594.135.212.274-.365.175-.723zm-9.28 14.028c-.12-.306.002-.454.166-.2.097.15.108.264.03.3-.067.04-.155-.01-.195-.11zm-1.043-.615c0-.1.056-.18.124-.18s.124.08.124.18-.056.18-.124.18-.124-.08-.124-.18zm-1.422-1.377c-.107-.168.06-.494.255-.494.188 0 .215.115.098.412-.084.212-.245.25-.352.08zm3.036-2.615c0-.105.066-.17.148-.143.23.075.27.334.05.334-.108 0-.197-.086-.197-.19zm-1.78-.14c-.13-.217-.225-2.202-.105-2.202.156 0 .644 1.225.733 1.84.06.422.044.452-.254.452-.176 0-.344-.04-.374-.1zm3.583-1.63l-.258-.754c-.114-.332-.224-.983-.245-1.448a5.53 5.53 0 0 0-.343-1.629c-.398-1.026-.766-2.523-.646-2.63.052-.047.123-.003.16.096.083.23.755.845.923.845.077 0 .098-.178.052-.452-.09-.54.02-1.024.214-.96.08.026.14.32.14.687 0 .79.2.904.57.312.32-.528.482-.46.5.21.026.995.284 2.07.506 2.11.147.027.22-.06.248-.29.07-.58.32-.455.537.273.183.612.37 1.004 1.03 2.17.09.157.21.285.267.285s.166.15.24.332.205.428.292.546c.22.3-.05.445-.837.445-.73 0-.83-.052-1.1-.563-.258-.488-1.416-1.847-1.575-1.847-.24 0-.108.424.44 1.408l.56 1.005h-.812c-.54 0-.83-.05-.863-.15zm5.73-1.026l-.132-.53c-.093-.408-.403-.522-.775-.285-.16.103-.293.134-.293.07s.06-.153.135-.197c.088-.053.112-.412.07-1.033-.072-1.06-.053-1.1.82-1.243.374-.066.466-.045.466.105 0 .237.173.24.373.005.342-.4.497-.21.497.607 0 .606-.073.93-.316 1.395-.2.384-.287.698-.235.856s.016.29-.087.353c-.266.164-.457.125-.52-.104zm-7.394-1.2c-.27-.637-.363-1.1-.26-1.254.15-.234.235-.104.445.68.202.75.066 1.17-.186.575zm5.57-2.394c-.212-.248-.093-.332.187-.134.14.1.177.19.098.24-.07.043-.2-.005-.285-.105zm-.928-3.917c-.042-.066-.018-.12.055-.12s.132.054.132.12-.025.12-.055.12-.09-.054-.132-.12zm-.725-.804c-.046-.044-.08-.22-.08-.392.004-.3.01-.303.186-.077.28.36.188.757-.107.47zm4.425-.764c-.078-.3-.2-.3-.587-.054-.3.185-.294.18-.294-.246 0-.238-.145-.72-.323-1.074s-.323-.724-.323-.826c0-.248-.228-.417-1.148-.847-.963-.45-2.08-.555-2.08-.195 0 .296-.57.306-.725.014-.3-.563-.285-1.1.045-1.75.18-.348.413-.726.52-.84.204-.22 1.14-.697 1.366-.697.073 0 .377-.107.675-.24.584-.257 1.737-.324 2.26-.13.168.062.584.353.925.648.366.316.797.567 1.052.614.517.094.773.348.935.927.133.476.058 1.648-.112 1.75-.06.036-.108.165-.108.288s-.223.498-.496.833c-.308.378-.485.714-.466.886s-.03.264-.125.246-.155.106-.155.328c0 .54-.704.85-.834.366z" fill="#301009"/><path d="M128.02 297.285c-.218-.4-1.018-5.4-.933-5.83.117-.594.383-1.057.855-1.487.227-.206.43-.48.454-.606s.108-.253.2-.28c.1-.032.16.162.186.593.033.56.073.646.317.68.21.03.28-.02.28-.205 0-.134-.078-.287-.173-.34-.14-.078-.182-.722-.217-3.326l-.044-3.23.348-.176c.24-.12.606-.16 1.18-.125.684.042.876.1 1.08.336.304.35.895.42.956.117.027-.134.174-.22.412-.237l1.427-.137c.83-.086 1.084-.075 1.187.05.083.1.427.16.932.164l1.94.062c.895.044 1.172.02 1.288-.118.242-.283 1.047-.222 1.277.097l.195.27.007-.288c.004-.158.073-.504.155-.77.132-.43.123-.5-.086-.647a1.05 1.05 0 0 0-.517-.166c-.163 0-.344-.11-.427-.262-.166-.302-.205-3.295-.056-4.308.133-.902.312-.56.314.6.002.732.062 1.026.298 1.458.163.298.334.71.38.915s.165.438.263.517.178.22.178.3c0 .22.18.212.373-.015.207-.243.373-.23.373.03 0 .29-.645 2.024-.985 2.648-.327.6-.305 1.054.053 1.08l.435.03c.115.008-.016.192-.342.482-.51.452-.528.494-.52 1.176.006.642.042.735.387 1 .42.323.687.26.908-.21.174-.372.79-.56 1.058-.325.4.343.538.228.455-.356-.063-.444-.044-.526.107-.47.1.038.183.008.183-.065 0-.2.384-.16.643.067.276.243.465.11.25-.176l-.412-.598c-.228-.347-.324-.393-.836-.4-1.13-.017-1.08-.174.126-.4l1.344-.236c.216-.02.27.29.294 1.67.03 1.84-.747 2.834-2.215 2.837-1.037.002-1.688.123-1.77.328-.038.096.177.638.477 1.205.704 1.33.72 1.852.084 2.81-.253.382-.665 1.34-.967 2.248l-.624 1.737c-.197.3-2.674.463-7.6.47-4.458.007-4.817-.008-4.924-.204zm7.902-2.112c.235-.284.3-.887.113-1.04-.274-.22-.566-.034-.653.418-.11.577.24.98.54.62zm-4.575-11.376c.153-.146.15-.18-.032-.247-.23-.086-.828.238-.828.447 0 .17.623.026.86-.2zm-4.587 1.39c.102-.064.298-.114.435-.1l.248.007-.248.104c-.137.057-.332.107-.435.1-.166.006-.166-.006 0-.1zm15.75-1.513c-.093-.1.366-1.265.622-1.593.194-.248.25-.258.7-.127.264.08.568.274.676.435.173.256.175.328.018.595-.137.233-.384.356-1.048.526l-.88.225c-.006.002-.04-.026-.077-.062zm-14.664-1.25c-.188-.217-.312-.443-.274-.502s-.032-.256-.154-.438l-.223-.33.396.284c.425.305.708.822.64 1.168-.035.175-.104.143-.384-.182zm16.873-.6c-.054-.084-.064-.185-.023-.225.11-.108.232.05.172.226-.042.123-.07.123-.15 0zm-8.643-5.724c0-.096.118-.433.262-.75.214-.47.247-.707.18-1.28-.07-.59-.053-.694.1-.636a.5.5 0 0 1 .254.247c.04.1.124.147.2.108.232-.14.402.425.314 1.045-.058.41-.192.716-.414.945-.4.404-.887.584-.887.322zm2.044-.936c-.134-.2.02-.255.19-.055.098.115.107.184.025.184-.073 0-.17-.058-.214-.13zm-2.976-5c-.273-.3-.53-.668-.574-.82-.138-.495-.5-.92-.785-.92-.15 0-.522-.077-.824-.17-1.27-.395-2.184-.312-2.076.188.02.095-.07.164-.213.164-.203 0-.27-.117-.36-.64-.097-.555-.074-.718.175-1.234.313-.65.638-.998 1.117-1.195l.497-.235c.33-.188 1.4-.476 2.066-.55.798-.1 1.103.022 1.878.7.4.345.822.582 1.2.675.49.12.613.2.763.558.37.858.06 2.478-.608 3.18-.29.304-1.338.866-1.6.858-.088-.003-.383-.25-.656-.55z" fill="#0d0c06"/><path d="M-1.587 106.5h274.634v195.79H-1.587z" opacity=".45" class="H"/><g transform="matrix(1.008593 0 0 .98463 -1.107275 4.357188)"><path d="M127.87 297.793c-.22-.244-.3-.636-.9-3.925-.433-2.454-.335-3.074.648-4.1.407-.425.42-.466.26-.798-.138-.29-.264-.362-.72-.415-.303-.036-.634-.116-.735-.18s-.35-.117-.553-.12c-.35-.004-.37-.034-.405-.56-.035-.536-.057-.564-.646-.825-.996-.442-1.087-1.25-.204-1.825l.396-.258.013-2.505c.018-3.393.164-4.396.86-5.943.305-.675.7-1.38.88-1.57.418-.44 1.34-.872 2.558-1.202.532-.144 1.017-.308 1.076-.364s-.037-.462-.23-.94c-.282-.7-.366-1.1-.427-2.026-.003-.046-.116-.12-.25-.162-.383-.122-.29-.398.246-.737s.59-.534.307-1.21-.23-1.348.172-2.14c.525-1.037.835-1.255 2.53-1.783 1.58-.492 2.522-.363 3.377.464.236.23.753.536 1.148.683.623.232.748.334.95.775a3.29 3.29 0 0 1 .234 1.127c.003.76-.405 1.974-.805 2.397-.188.2-.297.46-.297.7 0 .546-.265 1.1-.794 1.66-.246.26-.43.485-.4.498a46.2 46.2 0 0 0 1.326.428c1.686.53 3.118 1.22 3.826 1.843.78.686 1.57 1.96 3.012 4.864l1.223 2.46.163 2.055c.132 1.667.133 2.153.007 2.575-.318 1.06-.645 1.586-1.217 1.95-.484.307-.675.353-1.483.354-.5.001-.997.046-1.082.1-.116.073-.032.335.338 1.048.667 1.3.68 2.005.06 3.014-.238.386-.682 1.444-.986 2.35s-.663 1.76-.797 1.894c-.356.356-1.28.42-7.24.502-5.07.07-5.227.065-5.438-.168zm-2.22-11.764c-.06-.155-.12-.176-.217-.078-.074.074-.098.23-.053.348.06.155.12.176.217.078.074-.074.098-.23.053-.348z" fill="#a99e9a"/><path d="M127.975 297.65c-.206-.228-.28-.58-1-4.776-.237-1.398-.1-2.02.626-2.827.583-.65.652-.9.352-1.34-.14-.198-.316-.273-.645-.273-.25 0-.634-.11-.855-.246s-.485-.245-.587-.245c-.285 0-.334-.29-.177-1.046.256-1.235-.133-1.74-.614-.796-.258.505-.455.6-.712.344-.372-.372-.014-1.196.605-1.392.295-.094.387-.443.227-.864-.077-.203-.095-.556-.043-.845.05-.273.1-1.298.114-2.277.038-2.634.158-3.273.9-4.83.567-1.173.7-1.373 1.214-1.693.56-.356 1.974-.863 2.877-1.032l.458-.086v.51c0 .56.166.7.676.573.337-.085.413-.407.123-.52-.138-.053-.165-.186-.1-.533.045-.284.02-.495-.062-.547-.075-.046-.136-.187-.136-.312 0-.325-.282-.38-.445-.087l-.138.248-.134-.25c-.224-.418-.32-1.264-.143-1.264.092 0 .127.097.09.246-.04.154-.004.246.098.246.09 0 .324-.427.524-.952l.362-.952.54-.06c.4-.046.527-.11.493-.246-.026-.1-.055-.357-.065-.57-.03-.63-.586-1.065-.765-.598-.048.125-.244.184-.607.184-.637 0-.867-.26-.985-1.12-.063-.46-.015-.672.293-1.28.424-.84.615-1.03 1.378-1.37 1.018-.457 1.775-.648 2.556-.648.874 0 1.088.088 1.847.753a3.39 3.39 0 0 0 1.105.627c.5.136.61.235.846.705.152.3.276.75.276.996 0 .68-.434 1.898-.87 2.44-.217.27-.358.563-.32.665.136.353-.183 1.077-.72 1.64-.63.66-.684.88-.208.87.465-.01 2.623.707 3.59 1.193.995.5 1.838 1.235 2.442 2.13.256.38 1.064 1.866 1.795 3.304l1.33 2.614.18 2.006c.178 1.984.177 2.016-.094 2.912-.21.69-.385 1.01-.738 1.347-.443.422-.512.444-1.553.513-1.16.076-1.52.162-1.52.363 0 .07.22.566.49 1.106.65 1.296.66 1.863.06 2.795-.247.384-.678 1.42-1.013 2.44-.55 1.673-.605 1.78-.987 1.94-.452.2-5.474.402-9.615.406-2.232.002-2.422-.015-2.623-.237zm7.853-2.83c.09-.28-.024-.53-.192-.426-.15.092-.15.67 0 .67.063 0 .15-.1.192-.244zm-3.302-19.736c-.125-.125-.228.063-.125.23.077.125.106.125.148 0 .028-.085.018-.188-.022-.23zm-.01-3.353c.22-.243.22-.257-.042-.518-.25-.25-.28-.255-.474-.062-.17.17-.18.26-.065.518.172.377.285.39.58.062zm-7.432 14.984c0-.068.052-.123.116-.123s.15.055.19.123-.01.123-.116.123-.19-.055-.19-.123zm5.063-16.426c-.288-.25-.523-.52-.522-.597.003-.2.387-.322.538-.17.19.19.325.152.24-.07-.066-.172-.043-.176.193-.03.335.207.433.568.27 1-.07.183-.142.33-.16.33s-.27-.21-.557-.46z" fill="#8f4e47"/><path d="M128.08 297.674c-.196-.13-.273-.43-.61-2.392-.698-4.075-.692-4.183.27-5.266.593-.668.628-.917.22-1.55-.15-.234-.25-.266-.642-.203-.606.097-.818-.145-.773-.88.02-.304-.02-.542-.1-.542-.167 0-.287.41-.192.657.092.24-.27.42-.463.23-.1-.1-.084-.316.02-.75.192-.8.067-1.616-.26-1.702-.382-.1-.193-.323.45-.53.33-.105.617-.25.64-.32.05-.147-.837-.32-1.107-.217-.196.075-.38-.26-.256-.462.043-.07.07-.92.06-1.892-.02-1.907.074-2.15.476-1.244.21.472.66 1.074.804 1.074.06 0-.007-.15-.61-1.412-.356-.742-.548-1.93-.382-2.36.066-.17.157-.07.414.457.228.467.393.665.535.64.113-.02.24.023.284.092.132.214.34.14.252-.09-.046-.118-.137-.5-.202-.85-.108-.582-.095-.66.173-.947.23-.248.323-.283.446-.164s.136-.006.057-.65c-.157-1.272-.136-1.612.112-1.765.178-.1.256-.092.394.093.163.22.185.208.427-.202.185-.314.364-.45.65-.497l.64-.105c.183-.03.256.038.288.266.023.17.094.37.158.447s.15.425.2.772c.093.783.332.763.384-.032.04-.6.118-.663.546-.434.227.12.313.082.667-.305.48-.523.505-.663.13-.716-.184-.026-.27-.117-.257-.27.035-.41-.427-1.3-.752-1.448-.312-.142-.408-.396-.2-.525.062-.038.15-.285.193-.55s.18-.57.302-.68c.204-.185.227-.185.298-.001.042.1.045.402.006.65-.084.54.192 1.27.583 1.545.228.16.266.29.238.806-.026.487.007.617.156.617.422 0 .59-.86.222-1.13-.25-.18-.268-.872-.037-1.304.116-.217.086-.304-.2-.57-.186-.172-.435-.313-.554-.313s-.216-.055-.216-.123.197-.123.437-.123c.383 0 .433-.034.4-.276-.028-.204.03-.286.226-.314.334-.048.68-.773.413-.862-.093-.03-.34-.236-.546-.455-.375-.397-.8-.67-1.04-.67-.07 0-.233.114-.363.254-.334.358-1 .286-1.21-.132-.462-.92.125-2.438 1.193-3.084.304-.184.668-.34.8-.344s.435-.098.65-.206.71-.225 1.094-.26c.84-.076 1.33.105 2.1.78.298.26.796.558 1.105.66.433.142.612.283.777.614.445.9.165 2.415-.625 3.413-.223.28-.37.57-.326.64.174.282-.122.937-.7 1.55-.63.665-.747 1.116-.277 1.062.358-.04 2.796.78 3.763 1.267 1.66.835 2.22 1.565 4.155 5.392l1.305 2.582.164 2.063c.15 1.905.147 2.117-.053 2.76-.25.807-.677 1.424-1.15 1.664-.182.093-.816.194-1.408.224s-1.14.117-1.216.193c-.103.103-.001.41.395 1.2.684 1.35.716 1.964.146 2.823-.415.627-.517.87-1.226 2.95-.528 1.55-.383 1.445-2.302 1.652-1.366.147-10.358.178-10.574.036zm7.82-2.878c.118-.44-.174-.724-.37-.36-.072.135-.13.364-.13.508 0 .38.4.264.5-.15zm-7.99-7.096c.18-.433.313-.47.407-.1.037.142.14.234.23.205.25-.083.274-.5.04-.66-.153-.112-.177-.21-.09-.363.134-.24.058-.667-.118-.667-.418 0-1.328.796-1.328 1.162 0 .32.328.802.545.802.09 0 .23-.166.315-.368zm-.576-1.807c.3-.25.542-.478.516-.503-.084-.084-.92.238-1.108.426-.2.2-.247.534-.077.534.058 0 .36-.205.67-.457zm15.187-.587c-.163-.197-.49-.252-.49-.082s.15.266.404.266c.2 0 .214-.03.087-.184zm-13.57-3.333c-.2-.145-.246-.143-.336.017-.163.292.006.452.307.29.253-.135.254-.144.03-.31zm2.6.005c-.04-.04-.147-.045-.235-.01-.098.04-.07.068.074.074.13.005.202-.024.16-.064zm2.884-.2c-.207-.1-.318-.098-.424.008s-.043.14.28.135c.398-.008.407-.017.143-.143zm4.232.076c.15-.04.24-.14.208-.227s.06-.62.207-1.185c.304-1.176.475-3.408.23-2.994-.08.135-.317.427-.526.65-.315.334-.396.544-.473 1.228-.05.453-.092 1.027-.1 1.275.003.497-.23.76-.332.375-.035-.134-.19-.3-.348-.372-.264-.12-.3-.226-.364-1.458-.14-2.367-.683-2.884-.834-.795-.07.99-.05 1.397.108 1.955.11.387.225.91.256 1.165l.058.46.816-.002c.45-.001.936-.034 1.084-.073zm-1.24-.495c-.043-.11-.052-.227-.02-.258.098-.098.318.098.318.283 0 .24-.2.224-.297-.025zm-9.047-.688c-.01-.425-.03-.465-.1-.215-.082.285-.042.737.066.737.026 0 .042-.235.035-.522zm-.148-1.04c-.03-.12-.06-.05-.06.15s.023.3.057.217.036-.25.005-.368zm4.335-1.36c0-.367-.193-.638-.454-.638-.198 0-.204.26-.017.67.192.422.47.403.47-.03zm-4.584-.178c-.034-.084-.062-.015-.062.153s.028.238.062.153.034-.223 0-.307zm6.71-.97c.535-.282.594-.596.11-.596-.5 0-.942.338-.755.564.174.2.294.216.644.032zm-1.148-1.297c.002-.082-.167-.345-.377-.583-.382-.435-.978-.595-1.155-.31-.106.17.36.9.827 1.292l.383.322.16-.286c.087-.157.16-.353.163-.435zm-9.194 10.37c-.123-.325.017-.647.36-.83.218-.116.243-.1.243.25 0 .425-.2.856-.377.856-.067 0-.17-.124-.227-.276zm5.448-16.308c-.143-.232.042-.268.33-.066l.28.197h-.266c-.146 0-.302-.06-.347-.13z" fill="#5a261e"/><path d="M128.108 297.607c-.138-.103-.32-.9-.627-2.695-.608-3.592-.587-3.902.333-4.845.517-.53.642-.986.43-1.574-.073-.203-.02-.276.293-.394l.383-.145-.09-.957c-.05-.526-.118-1.004-.153-1.06-.096-.158-.746.01-1.15.296-.197.14-.358.196-.358.125s.275-.3.612-.53.613-.477.614-.57c.003-.253-.962-.09-1.7.29-.888.45-.936.17-.104-.603.525-.49.72-.603.87-.5.123.078.36.08.66.005.358-.088.48-.185.51-.405.06-.416-.08-.878-.266-.878-.246 0-.78-.617-1.17-1.356l-.858-1.59c-.674-1.236-.698-1.8-.034-.786.26.4.736.94 1.055 1.2.648.532 1.048 1.108 1.048 1.512.001.36.19.457.59.303.187-.072 2.714-.188 5.827-.27l5.832-.237c.324-.092.32-.098-.156-.18-1.026-.18-1.086-.24-1.004-1.027l.194-1.49c.097-.63.186-2.81.14-3.387-.006-.068-.115.014-.243.18-.163.213-.355.304-.642.307-.378.004-.42.043-.534.522-.224.928-.6 1.012-.733.17-.072-.424-.128-.487-.498-.557-.278-.052-.546-.012-.8.12-.442.23-.73.164-.73-.164 0-.357-.1-.378-.82-.187-.823.215-1.022.157-1.022-.297 0-.406-.758-1.26-1.12-1.26-.382 0-.263-.194.265-.432.273-.123.582-.366.687-.54s.362-.427.572-.562a3.11 3.11 0 0 0 .715-.737c.185-.273.433-.49.558-.49.185 0 .225.1.225.553 0 .545.006.552.388.523.214-.016 1.033.195 1.82.47 2.94 1.025 3.79 1.794 5.283 4.778l1.323 2.508c.536.95.632 1.227.725 2.087l.18 1.544c.24 1.8-.1 3.27-.934 3.964-.327.275-.52.334-1.093.34-.82.006-1.71.162-1.878.33-.075.075.072.484.41 1.13.44.848.526 1.127.525 1.708s-.067.787-.404 1.272c-.244.35-.617 1.24-.95 2.267-.3.93-.622 1.765-.714 1.856-.257.257-2.232.375-7.403.442-3.5.046-4.732.024-4.88-.085zm7.777-2.532c.07-.13.127-.383.127-.56 0-.264-.05-.316-.27-.284-.284.04-.466.47-.367.868.07.286.353.273.512-.023zm-6.626-4.98c0-.1-.083-.184-.184-.184s-.184.083-.184.184.083.184.184.184.184-.083.184-.184zm-.49-1.412c0-.068-.06-.123-.13-.123s-.096.055-.054.123.1.123.13.123.054-.055.054-.123zm13.047-1.938c-.037-.344.702-.688 1.23-.572l.352.077-.205-.396c-.17-.327-.176-.415-.04-.505a.56.56 0 0 1 .38-.057c.438.105.327-.163-.12-.287-1-.275-1.753-.12-1.753.356 0 .105-.103.256-.228.334-.335.21-.438.883-.18 1.17.273.3.6.23.563-.12zm2.286-2.68c.548-.124.875-.26.875-.36 0-.274-.156-.288-1.046-.093-1.056.232-1.41.364-1.41.526 0 .18.578.155 1.58-.072zm-1.454-2.135c.583-1.238.664-1.504.66-2.16-.006-.772-.332-1.638-.66-1.747-.128-.043-.146.075-.083.545.255 1.892.254 1.895-.198 2.996-.42 1.022-.712 2.146-.494 1.9.06-.068.408-.758.774-1.535zm-6.62-8.063c-.092-.344-.094-.343-.172.132-.043.264-.044.536-.001.604.133.215.27-.37.173-.736zm-9.173 14.275c-.12-.31.002-.462.164-.203.096.153.106.268.03.316-.067.04-.154-.01-.193-.113zm-1.03-.626c0-.1.055-.184.123-.184s.123.083.123.184-.055.184-.123.184-.123-.083-.123-.184zm-1.405-1.4c-.106-.17.06-.502.252-.502.186 0 .213.117.097.42-.083.216-.243.254-.348.083zm3-2.66c0-.107.066-.173.146-.146.228.076.265.34.05.34-.107 0-.194-.087-.194-.194zm-1.758-.143c-.13-.22-.222-2.24-.103-2.24.154 0 .636 1.247.724 1.872.06.43.043.46-.25.46-.174 0-.34-.04-.37-.092zm3.542-1.658l-.255-.767c-.112-.338-.22-1-.242-1.473a5.77 5.77 0 0 0-.339-1.658c-.393-1.044-.757-2.567-.64-2.676.05-.047.122-.003.158.098.082.234.746.86.912.86.076 0 .097-.18.052-.46-.088-.55.02-1.042.21-.976.08.027.138.327.138.7 0 .803.207.92.563.317.317-.537.476-.468.494.212.026 1.013.28 2.106.5 2.148.145.027.218-.06.246-.297.07-.592.315-.463.53.278.18.622.365 1.02 1.02 2.208.088.16.207.3.264.3s.164.152.237.338a3.18 3.18 0 0 0 .288.556c.218.307-.05.453-.827.453-.72 0-.82-.052-1.088-.573-.255-.497-1.4-1.88-1.557-1.88-.237 0-.106.432.435 1.433l.553 1.023h-.803c-.533 0-.82-.05-.853-.153zm5.664-1.044l-.13-.54c-.092-.415-.398-.53-.766-.3-.16.104-.3.137-.3.07s.06-.156.134-.2c.087-.054.11-.42.07-1.05-.072-1.08-.053-1.11.8-1.265.37-.067.46-.046.46.107 0 .24.17.244.368.006.338-.407.49-.214.49.618 0 .616-.072.945-.313 1.42-.198.39-.283.7-.232.87s.016.294-.086.36c-.263.166-.452.128-.515-.106zm-7.308-1.22c-.266-.648-.36-1.1-.256-1.276.147-.238.232-.105.44.69.2.764.065 1.192-.184.586zm5.505-2.436c-.21-.252-.092-.338.185-.136.138.1.175.195.097.243-.07.043-.197-.005-.282-.107zm-.917-3.986c-.042-.068-.017-.123.054-.123s.13.055.13.123-.024.123-.054.123-.088-.055-.13-.123zm-.716-.82c-.045-.045-.08-.225-.078-.4.004-.305.01-.308.184-.08.276.365.186.77-.106.478zm4.374-.778c-.077-.295-.196-.307-.58-.055-.287.188-.3.185-.3-.25 0-.242-.144-.734-.32-1.093s-.32-.737-.32-.84c0-.252-.226-.424-1.135-.862-.952-.46-2.057-.565-2.057-.198 0 .3-.562.312-.716.014-.296-.573-.282-1.13.045-1.782.177-.354.408-.74.513-.855.2-.223 1.126-.71 1.35-.71.073 0 .373-.11.667-.243.577-.262 1.717-.33 2.233-.134.166.063.578.36.915.66.362.32.788.577 1.04.624.51.096.764.354.924.944.132.485.058 1.677-.11 1.78-.06.036-.107.168-.107.293s-.22.507-.5.848c-.304.385-.48.727-.46.9s-.03.27-.123.25-.153.108-.153.333c0 .55-.695.864-.824.373z" fill="#301009"/><path d="M128.05 297.43c-.215-.407-1.006-5.494-.923-5.933a2.65 2.65 0 0 1 .845-1.513c.224-.2.426-.488.448-.617s.107-.257.188-.284c.1-.033.16.165.184.604.033.57.072.658.314.692.208.03.276-.022.276-.21 0-.136-.077-.292-.17-.346-.138-.08-.18-.735-.215-3.384l-.043-3.286.344-.18c.238-.123.6-.163 1.166-.127.677.042.866.103 1.068.342.3.355.885.428.945.12.026-.137.172-.223.408-.24l1.4-.14c.82-.087 1.072-.076 1.173.05.082.102.422.163.92.167l1.918.063c.885.045 1.158.02 1.274-.12.24-.288 1.035-.226 1.262.1l.193.276.006-.293c.004-.16.072-.513.153-.782.13-.437.122-.508-.085-.66a1.02 1.02 0 0 0-.511-.169c-.16 0-.34-.113-.422-.267-.164-.307-.203-3.353-.056-4.384.13-.918.308-.57.31.61.001.745.06 1.044.295 1.484.16.303.33.722.376.93s.163.446.26.526.176.222.176.315c0 .223.177.215.368-.015.205-.247.368-.233.368.032 0 .294-.638 2.06-.974 2.694-.323.61-.3 1.072.053 1.098l.43.03c.114.008-.016.196-.338.5-.503.46-.522.503-.515 1.197.006.653.042.748.383 1.018.415.328.68.266.897-.213.172-.378.78-.57 1.045-.33.386.35.532.232.45-.363-.062-.45-.043-.535.106-.478.1.038.18.008.18-.066 0-.204.38-.163.636.068.273.247.46.113.247-.18l-.407-.608c-.226-.354-.32-.4-.826-.408-1.117-.017-1.068-.177.125-.408l1.328-.24c.213-.02.268.296.3 1.7.03 1.87-.738 2.884-2.2 2.887-1.025.002-1.67.125-1.75.334-.037.097.175.65.47 1.226.695 1.353.71 1.885.083 2.86-.25.388-.658 1.364-.956 2.288l-.617 1.767c-.195.315-2.644.47-7.513.48-4.406.007-4.762-.008-4.867-.208zm7.81-2.15c.232-.29.297-.903.112-1.057-.27-.225-.56-.035-.646.425-.1.587.238 1 .534.63zm-4.523-11.576c.152-.148.147-.182-.032-.25-.227-.087-.82.242-.82.455 0 .174.616.026.85-.204zm-4.534 1.416c.1-.065.295-.116.43-.112l.246.007-.246.106c-.135.058-.328.11-.43.112-.164.006-.164-.006 0-.112zm15.568-1.54c-.092-.092.362-1.287.615-1.62.192-.253.246-.263.682-.13.26.08.56.28.668.442.17.26.173.334.017.606-.135.237-.38.363-1.036.535l-.87.23c-.006.002-.04-.026-.076-.063zm-14.495-1.272c-.186-.22-.308-.45-.27-.51s-.032-.26-.153-.445l-.22-.336.39.29c.42.3.7.837.632 1.19-.034.178-.102.145-.38-.185zm16.68-.6c-.053-.086-.063-.19-.022-.23.1-.1.23.052.17.23-.042.125-.07.125-.148 0zm-8.544-5.825c0-.097.117-.44.26-.763.21-.477.244-.72.178-1.303-.068-.602-.052-.706.1-.648a.5.5 0 0 1 .251.252c.04.1.123.15.188.1.23-.142.397.433.31 1.063-.057.416-.2.728-.41.962-.385.41-.877.594-.877.327zm2.02-.953c-.132-.214.018-.26.187-.056.097.117.106.187.025.187-.072 0-.167-.06-.212-.13zm-2.942-5.098c-.27-.304-.525-.68-.567-.834-.136-.503-.494-.935-.776-.935-.15 0-.516-.078-.815-.174-1.256-.4-2.16-.317-2.052.192.02.096-.07.166-.21.166-.2 0-.266-.12-.356-.65-.096-.564-.073-.73.173-1.256.3-.66.63-1.015 1.104-1.217.17-.072.4-.18.49-.24.325-.19 1.393-.484 2.042-.56.788-.092 1.09.022 1.856.702.396.35.813.593 1.187.687.484.122.606.214.754.567.365.873.058 2.522-.6 3.235-.286.31-1.323.88-1.582.873-.087-.003-.38-.254-.65-.56z" fill="#0d0c06"/><path d="M127.74 282.548l-2.554.663s-.508-6.266 1.44-8.28c.964-.996 2.705-.605 4.07-.846l3.945-.574s6.254-.556 7.147 2.74l1 3.7 1.327 2.233z" opacity=".147" fill="#909090"/></g><path d="M244.502 286.7h.748v-14.264h2.46v-4.233h-5.98v4.233h2.773z" class="H"/><path d="M271.684 197.427L152.098 235.91 9.736 297.463l95.895.436 62.253.082 21.893.2h23.413l59.052-.124-.558-100.63z" opacity=".086" fill="#909090"/><path d="M-5.814 137.098l-.53-.18-.447.334.007-.558-.456-.322.533-.166.166-.533.322.456.558-.007-.334.447zm67.774-9.294l-.166.533-.533.165.456.322-.007.558.448-.334.53.18-.18-.53.334-.448-.558.007zm27.74 2.336l-.166.533-.533.166.456.322-.007.56.448-.334.53.18-.18-.53.334-.447-.558.007zm-54.914 1.642l-.166.533-.533.165.456.322-.007.558.448-.334.53.18-.18-.53.334-.448-.558.007zm123.597.006l-.166.533-.533.166.456.322-.007.558.448-.334.53.18-.18-.53.334-.448-.558.007zm-132.497 1.367l-.166.533-.533.166.456.322-.007.558.448-.334.53.18-.18-.53.334-.448-.558.007zm73.632 2.8l-.165.533-.533.165.456.322-.007.558.448-.334.53.18-.18-.53.334-.448-.56.007zm70.392 1.814l-.166.533-.533.166.456.322-.007.558.447-.334.53.18-.18-.53.334-.448-.56.007zm61.863 3.254l-.166.533-.533.166.456.322-.007.558.448-.334.53.18-.18-.53.334-.448-.558.007zM102.07 143.09l-.165.533-.533.165.456.322-.007.558.448-.334.53.18-.18-.53.334-.448-.558.007zm88.338 3.212l-.166.533-.533.165.456.322-.007.558.447-.334.53.18-.18-.53.334-.448-.56.007zm-71.73 11.985l-.166.533-.533.166.456.322-.007.558.448-.334.53.18-.18-.53.334-.448-.558.007zm-19.693.143l-.166.533-.533.166.456.322-.007.56.448-.334.53.18-.18-.53.334-.447-.558.007zm-86.916 9.628l-.166.533-.533.165.456.322-.007.558.447-.334.53.18-.18-.53.334-.448-.56.007zm166.952-58.88l-.166.533-.533.166.456.322-.007.56.447-.334.53.18-.18-.53.334-.447-.56.007zm-116.6 4.115l-.166.533-.533.165.456.322-.007.558.448-.334.53.18-.18-.53.334-.448-.558.007zm166.772 4.8l-.165.533-.533.166.456.322-.007.558.448-.334.53.18-.18-.53.334-.448-.558.007zm-202.62.23l-.166.533-.533.166.456.322-.007.558.448-.334.53.18-.18-.53.334-.448-.56.007zm22.805 27.67l-.166.533-.533.165.456.322-.007.558.448-.334.53.18-.18-.53.334-.448-.558.007zm177.355 11.06l-.166.533-.533.166.456.322-.007.56.447-.334.53.18-.18-.53.334-.447-.56.007zm-16.015 6.3l-.165.533-.533.165.456.322-.007.558.448-.334.53.18-.18-.53.334-.448-.558.007z" transform="matrix(.957489 0 0 .961338 15.681985 7.667993)" fill="#d0d0d0"/></g></svg>