<svg xmlns="http://www.w3.org/2000/svg" xmlns:xlink="http://www.w3.org/1999/xlink" width="1024" height="720" viewBox="0 0 270.93 190.498"><style><![CDATA[.B{fill:#8f8f8f}.C{fill:#c0c0c3}.D{fill:#fff}.E{fill:#c1c1c1}.F{fill:#68676b}.G{fill:#3f3d56}.H{fill:#5ca55f}.I{fill:#59503a}]]></style><path d="M149.288 91.894l28.216 8.535 30.386-8.214 29.843 8.856 20.076-8.213L275.366 103l.354 76.665-275.4.302-.61-83.19 8.955 4.53 14.198-4.41 17.363 3.854 16.82-8.856 7.596 2.892 23.332 5.643 18.45-6.607 17.363 6.286z" fill="#ebebeb" fill-opacity=".565"/><path d="M60.51 101.694L43.69 113.26l-14.65-4.82-15.508 4.575-10.617-6.748-5.537 3.362-.325 81.927h275.19V110.7l-10.982-8.04-20.075 10.924-29.84-11.567-30.384 10.925-28.214-11.246-25.5 10.924-17.362-8.997-18.447 9.318-23.33-8.354z" fill="#dcdce4" fill-opacity=".77"/><path d="M61.542 112.2L44.8 124.063l-14.58-4.943-15.674 12.23-9.708-7.285-5.45 4.1v53.08c0 7.448.24 13.445.537 13.445h272.36v-73.252l-10.93-8.248-19.98 11.205-29.702-11.865-30.242 11.206-28.082-11.535-25.38 11.205-17.28-9.228-18.36 9.558-23.22-8.57z" fill="#d1d1db" fill-opacity=".77"/><path d="M-.11 173.34h271.913v11.958H-.11z" fill="#afafb3"/><path d="M-.227 184.838h272.316v6.14H-.227z" class="B"/><path d="M236.723 112.113v5.223h-5.257V173.2l40.94.006v-35.673h-5.885v-6.504h-2v-6.603h-6.224v.06h-2.85v-7.16h-7.152v-5.223h-3.765zm-81.35 4.55v4.396h-14.26v52.363h22.465v-52.363h-5.38v-4.39h-.942v-.006zm-145.148 2.342v3.444H7.48v3.444H4.32v3.563H-.764v5.618h.07v38.054h29.372V135.03h-.138v-5.57h-4.842v-3.56h-2.693v-3.444H17.57V119h-4.377v-.007zm122.48 1.392v4.107h-13.322v48.918h20.988v-48.918h-5.027V120.4h-.88v-.006zm-22.26 2.197v3.936h-15.12v20.936h-3.925v-4.727h-1.46v-4.8h-4.523v.043h-2.07v-5.204h-5.198v-3.796h-8.404v3.796h-3.52v-.086h-7.452v-5h-4.93v-.027h-3.12v-3.124H48.88v-.028h-6.484v3.152H36.51v5.028h-7.382v40.6h36.796v.086l29.403.005v.028h23.823v-46.892h-5.706v-3.932h-1v-.006zm66.396 2.232v3.783h-12.27v45.06h19.09v.202h23.023v-30.612h-.108v-4.476h-3.795v-2.862h-2.11v-2.767h-2.692v-2.767h-3.43v-.006h-2.326v2.767h-2.154v2.767h-2.477v2.863h-3.687v-10.17h-4.63v-3.78h-.8v-.003zm45.49 8.387v5.162H207.72v35.26h23.022v-35.26h-5.515v-5.156h-.965v-.006z" fill="#c9c9c9"/><g transform="matrix(1.066544 0 0 1 .196045 -106.5)"><path d="M99.098 242.218h1.208v3.02h-1.208z" class="E"/><path d="M89.952 245.152h10.267v34.944H89.952z" class="C"/><path d="M100.22 245.152h4.14v34.944h-4.14z" class="B"/><g class="D"><use xlink:href="#B"/><path d="M94.3 248.172h1.553v1.553H94.3z"/><use xlink:href="#B" x="5.004"/><path d="M91.85 251.71h1.553v1.553H91.85z"/><use xlink:href="#B" x="2.545" y="3.538"/><use xlink:href="#B" x="5.047" y="3.538"/><use xlink:href="#B" x="0.086" y="7.075"/><use xlink:href="#B" x="2.588" y="7.075"/><use xlink:href="#B" x="5.09" y="7.075"/><path d="M91.937 258.784H93.5v1.553h-1.553zm2.503 0h1.553v1.553H94.44zm2.5 0h1.553v1.553H96.94zm-4.96 3.538h1.553v1.553H91.98z"/><use xlink:href="#B" x="2.674" y="14.15"/><use xlink:href="#B" x="5.176" y="14.15"/><use xlink:href="#B" x="0.215" y="17.688"/><use xlink:href="#B" x="2.717" y="17.688"/><use xlink:href="#B" x="5.22" y="17.688"/><use xlink:href="#B" x="0.258" y="21.225"/><path d="M94.57 269.397h1.553v1.553H94.57zm2.5 0h1.553v1.553H97.07zm-4.96 3.537h1.553v1.553H92.1z"/><use xlink:href="#B" x="2.804" y="24.762"/><path d="M94.612 277.076h1.553v2.934h-1.553z"/><use xlink:href="#B" x="5.306" y="24.762"/></g><path d="M100.22 242.22h.7v3.103h-.7z" class="F"/><path d="M11.417 255.662h1.105v3.097h-1.105z" class="E"/><path d="M3.054 258.736h9.39v21h-9.39z" class="C"/><path d="M12.443 258.736h3.787v21h-3.787z" class="B"/><path d="M4.908 261.96h1.42v1.553h-1.42zm2.288 0h1.42v1.553h-1.42zm2.288 0h1.42v1.553h-1.42zm-4.537 3.538h1.42v1.553h-1.42zm2.288 0h1.42v1.553h-1.42zm2.288 0h1.42v1.553h-1.42zm-4.536 3.538h1.42v1.553h-1.42zm2.288 0h1.42v1.553h-1.42zm2.288 0h1.42v1.553h-1.42zm-4.537 3.537h1.42v1.553h-1.42zm2.288 0h1.42v1.553h-1.42zm0 4.142h1.42v2.934h-1.42zm2.288-4.142h1.42v1.553h-1.42z" class="D"/><path d="M12.443 255.665h.63v3.103h-.63z" class="F"/><path d="M16.535 248.21h12.483v4.07H16.535z" class="E"/><path d="M16.576 252.25h12.337v27.592H16.576z" class="C"/><path d="M28.914 252.25H33.9v27.592h-4.976z" class="B"/><path d="M19.013 256.487h1.866v2.04h-1.866zm3.007 0h1.866v2.04H22.02zm3.006 0h1.866v2.04h-1.866zm-5.96 4.65h1.866v2.04h-1.866zm3.005 0h1.866v2.04H22.07zm3.008 0h1.866v2.04h-1.866zm-5.96 4.648h1.866v2.04h-1.866zm3.006 0h1.866v2.04h-1.866zm3.007 0h1.866v2.04H25.13zm-5.962 4.648h1.866v2.04h-1.866zm3.007 0h1.866v2.04h-1.866zm0 5.442h1.866v3.855h-1.866zm3.007-5.442h1.866v2.04h-1.866z" class="D"/><path d="M28.914 248.215h4.895v4.077h-4.895z" class="B"/><path d="M19.53 245.63h6.623v2.58H19.53z" class="E"/><path d="M26.06 245.636h4.895v2.58H26.06z" class="B"/><path d="M21.394 243.136h3.394v2.58h-3.394z" class="E"/><path d="M24.673 243.142h4.695v2.58h-4.695z" class="B"/><path d="M23.013 240.642h1.75v2.58h-1.75z" class="E"/><path d="M24.685 240.648h2.658v2.58h-2.658z" class="B"/><path d="M64.69 245.124H74.96v34.944H64.69z" class="C"/><path d="M74.96 245.124h4.14v34.944h-4.14z" class="B"/><g class="D"><path d="M66.546 248.144H68.1v1.553h-1.553zm2.502 0H70.6v1.553h-1.553zm2.502 0h1.553v1.553H71.55zm-4.96 3.536h1.553v1.553H66.6zm2.5 0h1.553v1.553H69.1z"/><use xlink:href="#B" x="-20.214" y="3.508"/><use xlink:href="#B" x="-25.176" y="7.048"/><use xlink:href="#B" x="-22.673" y="7.048"/><path d="M71.637 255.22H73.2v1.553h-1.553z"/><use xlink:href="#B" x="-25.132" y="10.584"/><use xlink:href="#B" x="-22.63" y="10.584"/><path d="M71.68 258.756h1.553v1.553H71.68zm-4.96 3.538h1.553v1.553H66.72zm2.5 0h1.553v1.553H69.22z"/><use xlink:href="#B" x="-20.085" y="14.122"/><use xlink:href="#B" x="-25.046" y="17.658"/><use xlink:href="#B" x="-22.544" y="17.658"/><use xlink:href="#B" x="-20.042" y="17.658"/><use xlink:href="#B" x="-25.003" y="21.198"/><use xlink:href="#B" x="-22.501" y="21.198"/><path d="M71.8 269.37h1.553v1.553H71.8zm-4.962 3.536H68.4v1.553h-1.553zm2.502 0h1.553v1.553H69.35zm0 4.142h1.553v2.934H69.35z"/><use xlink:href="#B" x="-19.956" y="24.734"/></g><path d="M74.9 257.76h10.267v22.3H74.9z" class="C"/><path d="M85.158 257.76h4.14v22.3h-4.14z" class="B"/><g class="D"><use xlink:href="#B" x="-14.89" y="10.76"/><path d="M79.42 258.932h1.553v1.553H79.42z"/><use xlink:href="#B" x="-9.886" y="10.76"/><path d="M76.96 262.47h1.553v1.553H76.96z"/><use xlink:href="#B" x="-12.345" y="14.298"/><use xlink:href="#B" x="-9.843" y="14.298"/><use xlink:href="#B" x="-14.804" y="17.835"/><use xlink:href="#B" x="-12.302" y="17.835"/><use xlink:href="#B" x="-9.8" y="17.835"/><path d="M77.047 269.545H78.6v1.553h-1.553zm2.503 0h1.553v1.553H79.55z"/><use xlink:href="#B" x="-9.756" y="21.373"/><path d="M79.722 277.05h1.553v2.934h-1.553z"/></g><g class="C"><path d="M74.9 253.694h7.31v4.56H74.9z"/><path d="M74.718 249.602h6.23v4.437h-6.23z"/></g><g class="B"><path d="M82.052 253.694h3.7v4.19h-3.7z"/><path d="M80.813 249.565h3.74v4.19h-3.74z"/></g><g class="D"><path d="M74.15 251.656h1.553v1.553H74.15z"/><use xlink:href="#B" x="-14.982" y="3.484"/><use xlink:href="#B" x="-17.614" y="7.022"/><path d="M76.87 255.194h1.553v1.553H76.87zm2.5 0h1.553v1.553H79.37zm-2.323 17.802H78.6v1.553h-1.553zm2.503 0h1.553v1.553H79.55z"/><use xlink:href="#B" x="-9.756" y="24.824"/><path d="M74.25 258.756h1.553v1.553H74.25z"/><use xlink:href="#B" x="-17.515" y="14.122"/><path d="M74.25 265.905h1.553v1.553H74.25z"/><use xlink:href="#B" x="-17.515" y="21.271"/><use xlink:href="#B" x="-17.515" y="24.845"/></g><path d="M67.85 241.857h4.687v3.328H67.85z" class="C"/><path d="M72.478 241.857H74.8v3.4h-2.323z" class="B"/><path d="M34.26 245.05H60.8v34.944H34.26z" class="C"/><path d="M60.8 245.05h4.14v34.944H60.8z" class="B"/><g class="D"><use xlink:href="#B" x="-39.421" y="-0.102"/><path d="M54.9 248.07h1.553v1.553H54.9zm2.5 0h1.553v1.553H57.4zm-4.96 3.537h1.553v1.553H52.43z"/><use xlink:href="#B" x="-36.876" y="3.435"/><use xlink:href="#B" x="-34.374" y="3.435"/><use xlink:href="#B" x="-39.335" y="6.973"/><use xlink:href="#B" x="-36.833" y="6.973"/><use xlink:href="#B" x="-34.331" y="6.973"/><use xlink:href="#B" x="-39.292" y="10.51"/><use xlink:href="#B" x="-36.79" y="10.51"/><path d="M57.52 258.682h1.553v1.553H57.52zm-4.96 3.538h1.553v1.553H52.56zm2.5 0h1.553v1.553H55.06z"/><use xlink:href="#B" x="-34.245" y="14.048"/><use xlink:href="#B" x="-39.206" y="17.585"/><use xlink:href="#B" x="-36.704" y="17.585"/><use xlink:href="#B" x="-34.201" y="17.585"/><use xlink:href="#B" x="-39.163" y="21.123"/><path d="M55.148 269.295H56.7v1.553h-1.553zm2.502 0h1.553v1.553H57.65z"/><use xlink:href="#B" x="-39.12" y="24.66"/><path d="M55.19 272.832h1.553v1.553H55.19z"/><use xlink:href="#B" x="-34.115" y="24.66"/><use xlink:href="#B" x="-47.064" y="-0.102"/><path d="M47.247 248.07H48.8v1.553h-1.553zm2.503 0h1.553v1.553H49.75z"/><use xlink:href="#B" x="-47.02" y="3.435"/><path d="M47.3 251.607h1.553v1.553H47.3z"/><use xlink:href="#B" x="-42.016" y="3.435"/><path d="M44.83 255.145h1.553v1.553H44.83z"/><use xlink:href="#B" x="-44.475" y="6.973"/><use xlink:href="#B" x="-41.973" y="6.973"/><use xlink:href="#B" x="-46.934" y="10.51"/><use xlink:href="#B" x="-44.432" y="10.51"/><use xlink:href="#B" x="-41.93" y="10.51"/><use xlink:href="#B" x="-46.891" y="14.048"/><path d="M47.42 262.22h1.553v1.553H47.42zm2.5 0h1.553v1.553H49.92zm-4.96 3.537h1.553v1.553H44.96z"/><use xlink:href="#B" x="-44.346" y="17.585"/><use xlink:href="#B" x="-41.844" y="17.585"/><use xlink:href="#B" x="-46.805" y="21.123"/><use xlink:href="#B" x="-44.303" y="21.123"/><use xlink:href="#B" x="-41.8" y="21.123"/><path d="M45.046 272.832H46.6v1.553h-1.553zm2.504 0h1.553v1.553H47.55zm2.5 0h1.553v1.553H50.05z"/><use xlink:href="#B" x="-54.733" y="-0.102"/><use xlink:href="#B" x="-52.231" y="-0.102"/><path d="M42.08 248.07h1.553v1.553H42.08z"/><use xlink:href="#B" x="-54.69" y="3.435"/><path d="M39.62 251.607h1.553v1.553H39.62z"/><use xlink:href="#B" x="-49.686" y="3.435"/><path d="M37.16 255.145h1.553v1.553H37.16z"/><use xlink:href="#B" x="-52.145" y="6.973"/><use xlink:href="#B" x="-49.643" y="6.973"/><use xlink:href="#B" x="-54.604" y="10.51"/><use xlink:href="#B" x="-52.102" y="10.51"/><use xlink:href="#B" x="-49.6" y="10.51"/><path d="M37.247 262.22H38.8v1.553h-1.553zm2.503 0h1.553v1.553H39.75z"/><use xlink:href="#B" x="-49.556" y="14.048"/><path d="M37.3 265.757h1.553v1.553H37.3z"/><use xlink:href="#B" x="-52.015" y="17.585"/><use xlink:href="#B" x="-49.513" y="17.585"/><use xlink:href="#B" x="-54.474" y="21.123"/><use xlink:href="#B" x="-51.972" y="21.123"/><use xlink:href="#B" x="-49.47" y="21.123"/><use xlink:href="#B" x="-54.431" y="24.66"/><path d="M39.88 272.832h1.553v1.553H39.88zm2.5 0h1.553v1.553H42.38zm12.8 4.142h1.553v2.934H55.2zm-15 0h1.553v2.934H40.2z"/></g><path d="M40.366 240.723H54.7v4.408H40.366z" class="C"/><path d="M54.636 240.746h4.14v4.488h-4.14z" class="B"/><path d="M45.235 238.01h5.362v2.806h-5.362z" class="C"/><path d="M50.572 238.035h1.55v2.886h-1.55z" class="B"/><path d="M155.36 238.28h1.34v3.35h-1.34z" class="E"/><path d="M145.214 241.535h11.392v38.772h-11.392z" class="C"/><path d="M156.606 241.535h4.595v38.772h-4.595z" class="B"/><g class="D"><use xlink:href="#C"/><use xlink:href="#C" x="2.776"/><use xlink:href="#C" x="5.552"/><use xlink:href="#C" x="0.048" y="3.924"/><use xlink:href="#C" x="2.824" y="3.924"/><use xlink:href="#C" x="5.6" y="3.924"/><use xlink:href="#C" x="0.096" y="7.85"/><use xlink:href="#C" x="2.872" y="7.85"/><use xlink:href="#C" x="5.648" y="7.85"/><use xlink:href="#C" x="0.144" y="11.774"/><use xlink:href="#C" x="2.92" y="11.774"/><use xlink:href="#C" x="5.696" y="11.774"/><use xlink:href="#C" x="0.191" y="15.7"/><use xlink:href="#C" x="2.968" y="15.7"/><use xlink:href="#C" x="5.744" y="15.7"/><use xlink:href="#C" x="0.238" y="19.624"/><use xlink:href="#C" x="3.016" y="19.624"/><use xlink:href="#C" x="5.792" y="19.624"/><use xlink:href="#C" x="0.288" y="23.55"/><use xlink:href="#C" x="3.063" y="23.55"/><use xlink:href="#C" x="5.84" y="23.55"/><use xlink:href="#C" x="0.335" y="27.474"/><use xlink:href="#C" x="3.111" y="27.474"/><path d="M150.383 276.956h1.723v3.255h-1.723z"/><use xlink:href="#C" x="5.888" y="27.474"/></g><path d="M156.606 238.283h.766v3.443h-.766z" class="F"/><path d="M194.04 245.497h1.596v4.475h-1.596z" class="E"/><path d="M181.954 249.938h13.566v30.34h-13.566z" class="C"/><path d="M195.52 249.938h5.472v30.34h-5.472z" class="B"/><path d="M184.634 254.598h2.052v2.244h-2.052zm3.306 0h2.052v2.244h-2.052zm3.306 0h2.052v2.244h-2.052zM184.7 259.7h2.052v2.244H184.7zm3.307 0h2.052v2.244h-2.052zm3.306 0h2.052v2.244h-2.052zm-6.555 5.1h2.052v2.244h-2.052zm3.306 0h2.052v2.244h-2.052zm3.306 0h2.052v2.244h-2.052zm-6.555 5.112h2.052v2.244h-2.052zm3.305 0h2.052v2.244H188.1zm0 5.984h2.052v4.24H188.1zm3.307-5.984h2.052v2.244h-2.052z" class="D"/><path d="M195.52 245.5h.912v4.484h-.912z" class="F"/><path d="M162.014 250.286h13.727v3.885h-13.727z" class="E"/><path d="M162.06 254.14h13.567v26.34H162.06z" class="C"/><path d="M175.627 254.14h5.472v26.34h-5.472z" class="B"/><g class="D"><use xlink:href="#D"/><use xlink:href="#D" x="3.305"/><use xlink:href="#D" x="6.612"/><use xlink:href="#D" x="0.056" y="4.438"/><use xlink:href="#D" x="3.362" y="4.438"/><use xlink:href="#D" x="6.67" y="4.438"/><use xlink:href="#D" x="0.113" y="8.874"/><use xlink:href="#D" x="3.42" y="8.874"/><use xlink:href="#D" x="6.726" y="8.874"/><path d="M164.9 271.498h2.052v1.948H164.9z"/><use xlink:href="#D" x="3.476" y="13.312"/><path d="M168.216 276.693h2.052v3.68h-2.052z"/><use xlink:href="#D" x="6.783" y="13.312"/></g><path d="M175.627 250.29H181v3.892h-5.383z" class="B"/><path d="M165.31 247.822h7.284v2.463h-7.284z" class="E"/><path d="M172.488 247.827h5.383v2.462h-5.383z" class="B"/><path d="M167.357 245.44h3.732v2.463h-3.732z" class="E"/><path d="M170.963 245.446h5.163v2.462h-5.163z" class="B"/><path d="M169.138 243.06h1.924v2.463h-1.924z" class="E"/><path d="M170.976 243.065h2.923v2.462h-2.923z" class="B"/><path d="M106.246 243.567h31.137v36.48h-31.137z" class="C"/><path d="M137.383 243.567h4.86v36.48h-4.86z" class="B"/><g class="D"><use xlink:href="#E"/><use xlink:href="#E" x="2.936"/><use xlink:href="#E" x="5.872"/><use xlink:href="#E" x="0.051" y="3.692"/><path d="M130.5 250.412h1.822v1.62H130.5z"/><use xlink:href="#E" x="5.923" y="3.692"/><use xlink:href="#E" x="0.102" y="7.385"/><use xlink:href="#E" x="3.038" y="7.385"/><use xlink:href="#E" x="5.973" y="7.385"/><use xlink:href="#E" x="0.152" y="11.078"/><path d="M130.6 257.798h1.822v1.62H130.6z"/><use xlink:href="#E" x="6.024" y="11.078"/><use xlink:href="#E" x="0.203" y="14.77"/><use xlink:href="#E" x="3.138" y="14.77"/><use xlink:href="#E" x="6.074" y="14.77"/><use xlink:href="#E" x="0.253" y="18.464"/><path d="M130.7 265.184h1.822v1.62H130.7z"/><use xlink:href="#E" x="6.125" y="18.464"/><use xlink:href="#E" x="0.304" y="22.157"/><use xlink:href="#E" x="3.24" y="22.157"/><use xlink:href="#E" x="6.176" y="22.157"/><use xlink:href="#E" x="0.355" y="25.85"/><use xlink:href="#E" x="3.29" y="25.85"/><use xlink:href="#E" x="6.226" y="25.85"/><use xlink:href="#E" x="-8.966"/><use xlink:href="#E" x="-6.03"/><use xlink:href="#E" x="-3.095"/><use xlink:href="#E" x="-8.916" y="3.692"/><use xlink:href="#E" x="-5.98" y="3.692"/><use xlink:href="#E" x="-3.044" y="3.692"/><use xlink:href="#E" x="-8.865" y="7.385"/><use xlink:href="#E" x="-5.929" y="7.385"/><use xlink:href="#E" x="-2.992" y="7.385"/><use xlink:href="#E" x="-8.814" y="11.078"/><use xlink:href="#E" x="-5.879" y="11.078"/><use xlink:href="#E" x="-2.942" y="11.078"/><use xlink:href="#E" x="-8.764" y="14.77"/><use xlink:href="#E" x="-5.828" y="14.77"/><use xlink:href="#E" x="-2.892" y="14.77"/><path d="M118.8 265.184h1.822v1.62H118.8z"/><use xlink:href="#E" x="-5.777" y="18.464"/><use xlink:href="#E" x="-2.842" y="18.464"/><use xlink:href="#E" x="-8.662" y="22.157"/><use xlink:href="#E" x="-5.727" y="22.157"/><use xlink:href="#E" x="-2.792" y="22.157"/><path d="M118.9 272.57h1.822v1.62H118.9z"/><use xlink:href="#E" x="-5.676" y="25.85"/><use xlink:href="#E" x="-2.74" y="25.85"/><use xlink:href="#E" x="-17.965"/><use xlink:href="#E" x="-15.03"/><use xlink:href="#E" x="-12.094"/><use xlink:href="#E" x="-17.915" y="3.692"/><use xlink:href="#E" x="-14.979" y="3.692"/><use xlink:href="#E" x="-12.042" y="3.692"/><use xlink:href="#E" x="-17.864" y="7.385"/><use xlink:href="#E" x="-14.928" y="7.385"/><use xlink:href="#E" x="-11.992" y="7.385"/><path d="M109.7 257.798h1.822v1.62H109.7z"/><use xlink:href="#E" x="-14.878" y="11.078"/><use xlink:href="#E" x="-11.942" y="11.078"/><use xlink:href="#E" x="-17.762" y="14.77"/><use xlink:href="#E" x="-14.827" y="14.77"/><use xlink:href="#E" x="-11.892" y="14.77"/><path d="M109.8 265.184h1.822v1.62H109.8z"/><use xlink:href="#E" x="-14.776" y="18.464"/><use xlink:href="#E" x="-11.842" y="18.464"/><use xlink:href="#E" x="-17.662" y="22.157"/><use xlink:href="#E" x="-14.726" y="22.157"/><use xlink:href="#E" x="-11.79" y="22.157"/><path d="M109.9 272.57h1.822v1.62H109.9z"/><use xlink:href="#E" x="-14.675" y="25.85"/><use xlink:href="#E" x="-11.739" y="25.85"/><path d="M130.802 276.894h1.822v3.063h-1.822zm-17.59 0h1.822v3.063h-1.822z"/></g><path d="M113.408 239.05h16.82v4.602h-16.82z" class="C"/><path d="M130.152 239.074h4.86v4.686h-4.86z" class="B"/><path d="M119.12 236.22h6.292v2.93h-6.292z" class="C"/><path d="M125.384 236.243h1.818v3.013h-1.818z" class="B"/><path d="M201.592 244.972h10.267v34.944h-10.267z" class="C"/><path d="M211.86 244.972H216v34.944h-4.14z" class="B"/><g class="D"><path d="M203.447 247.992H205v1.553h-1.553z"/><use xlink:href="#B" x="114.142" y="-0.18"/><use xlink:href="#B" x="116.644" y="-0.18"/><use xlink:href="#B" x="111.682" y="3.358"/><use xlink:href="#B" x="114.185" y="3.358"/><use xlink:href="#B" x="116.687" y="3.358"/><use xlink:href="#B" x="111.726" y="6.895"/><use xlink:href="#B" x="114.228" y="6.895"/><use xlink:href="#B" x="116.73" y="6.895"/><use xlink:href="#B" x="111.769" y="10.433"/><use xlink:href="#B" x="114.272" y="10.433"/><use xlink:href="#B" x="116.772" y="10.433"/><use xlink:href="#B" x="111.812" y="13.97"/><use xlink:href="#B" x="114.314" y="13.97"/><use xlink:href="#B" x="116.816" y="13.97"/><use xlink:href="#B" x="111.855" y="17.508"/><use xlink:href="#B" x="114.357" y="17.508"/><use xlink:href="#B" x="116.859" y="17.508"/><use xlink:href="#B" x="111.898" y="21.045"/><use xlink:href="#B" x="114.4" y="21.045"/><use xlink:href="#B" x="116.902" y="21.045"/><use xlink:href="#B" x="111.942" y="24.583"/><use xlink:href="#B" x="114.444" y="24.583"/><path d="M206.252 276.896h1.553v2.934h-1.553z"/><use xlink:href="#B" x="116.946" y="24.583"/></g><path d="M211.79 257.6h10.267v22.3H211.79z" class="C"/><path d="M222.06 257.6h4.14v22.3h-4.14z" class="B"/><g class="D"><use xlink:href="#B" x="122.012" y="10.608"/><use xlink:href="#B" x="124.512" y="10.608"/><use xlink:href="#B" x="127.015" y="10.608"/><use xlink:href="#B" x="122.054" y="14.148"/><use xlink:href="#B" x="124.556" y="14.148"/><use xlink:href="#B" x="127.059" y="14.148"/><use xlink:href="#B" x="122.097" y="17.684"/><use xlink:href="#B" x="124.6" y="17.684"/><path d="M218.9 265.856h1.553v1.553H218.9z"/><use xlink:href="#B" x="122.142" y="21.222"/><use xlink:href="#B" x="124.642" y="21.222"/><use xlink:href="#B" x="127.145" y="21.222"/><path d="M216.623 276.9h1.553v2.934h-1.553z"/></g><g class="C"><path d="M211.79 253.543h7.31v4.56h-7.31z"/><path d="M211.62 249.45h6.23v4.437h-6.23z"/></g><g class="B"><path d="M218.953 253.543h3.7v4.19h-3.7z"/><path d="M217.714 249.414h3.74v4.19h-3.74z"/></g><g class="D"><use xlink:href="#B" x="119.244" y="3.333"/><use xlink:href="#B" x="121.919" y="3.333"/><use xlink:href="#B" x="119.288" y="6.871"/><use xlink:href="#B" x="121.962" y="6.871"/><use xlink:href="#B" x="124.464" y="6.871"/><use xlink:href="#B" x="122.142" y="24.673"/><use xlink:href="#B" x="124.642" y="24.673"/><use xlink:href="#B" x="127.145" y="24.673"/><use xlink:href="#B" x="119.342" y="10.433"/><use xlink:href="#B" x="119.386" y="13.97"/><use xlink:href="#B" x="119.342" y="17.582"/><use xlink:href="#B" x="119.386" y="21.118"/><use xlink:href="#B" x="119.386" y="24.694"/></g><path d="M204.752 241.706h4.687v3.328h-4.687z" class="C"/><path d="M209.38 241.706h2.323v3.4h-2.323z" class="B"/><path d="M242.77 235.766h2.063v5.783h-2.063z" class="E"/><path d="M227.15 241.506h17.533v39.213H227.15z" class="C"/><path d="M244.685 241.506h7.072v39.213h-7.072z" class="B"/><path d="M230.614 247.528h2.652v2.9h-2.652zm4.273 0h2.652v2.9h-2.652zm4.273 0h2.652v2.9h-2.652zm-8.473 6.606h2.652v2.9h-2.652zm4.273 0h2.652v2.9h-2.652zm4.273 0h2.652v2.9h-2.652zm-8.473 6.606h2.652v2.9h-2.652zm4.274 0h2.652v2.9h-2.652zm4.273 0h2.652v2.9h-2.652zm-8.472 6.606h2.652v2.9h-2.652zm4.273 0h2.652v2.9h-2.652zm0 7.734h2.652v5.478h-2.652zm4.272-7.734h2.652v2.9h-2.652z" class="D"/><path d="M244.685 235.772h1.18v5.795h-1.18z" class="F"/></g><path d="M27.36 164.888h2.773v14.264h.748v-14.264h2.46v-4.233h-5.98z" fill="#67676b"/><g transform="matrix(1.892204 0 0 1.892204 833.82957 -460.92444)"><circle r="6.89" cy="319.229" cx="-431.728" class="H"/><use xlink:href="#F" opacity=".2"/><path d="M-431.7 319.23l.34 19.534h-.72l.36-19.534z" class="I"/><path d="M-430.613 329.567l.16.3-1.14.6-.16-.3z" class="G"/></g><path d="M54.86 174.412h2.558v5.027h.53v-5.027h9.965v5.027h.53v-5.027h2.823v-.53H54.86zm.033-2.112h16.404v.53H54.893zm0-1.323h16.404v.53H54.893zm0-1.323h16.404v.53H54.893zm167.194 9.786h.53v-5.027h2.823v-.53h-16.404v.53h2.558v5.027h.53v-5.027h9.965zm-13.02-7.14h16.404v.53h-16.404zm0-1.323h16.404v.53h-16.404zm0-1.323h16.404v.53h-16.404z" class="G"/><g transform="matrix(1.892204 0 0 1.892204 1074.0682 -460.92444)"><circle cx="-431.728" cy="319.229" r="6.89" class="H"/><use xlink:href="#F" opacity=".2"/><path d="M-432.07 338.762l.36-19.534h.02l.34 19.534z" class="I"/><path d="M-430.613 329.567l.16.3-1.14.6-.16-.3z" class="G"/></g><g transform="matrix(1.44054 0 0 1.44054 775.04203 -311.62177)"><circle r="6.89" cy="319.229" cx="-431.728" class="H"/><use xlink:href="#F" opacity=".2"/><path d="M-431.7 319.23l.34 19.534h-.72l.36-19.534z" class="I"/><path d="M-430.613 329.567l.16.3-1.14.6-.16-.3z" class="G"/></g><path d="M127.84 191.142c-.224-.24-.314-.625-.9-3.857-.438-2.41-.34-3.02.655-4.03.41-.417.425-.458.264-.784-.14-.284-.268-.355-.727-.408-.307-.035-.64-.114-.744-.177s-.354-.115-.56-.118c-.353-.004-.375-.033-.41-.55-.035-.527-.057-.554-.654-.81-1.008-.435-1.1-1.228-.207-1.793l.4-.253.014-2.462c.018-3.334.166-4.32.87-5.84.308-.664.708-1.357.89-1.542.423-.43 1.355-.857 2.588-1.18.538-.142 1.028-.303 1.09-.358s-.037-.454-.23-.923c-.285-.688-.37-1.082-.432-1.99-.003-.045-.117-.117-.254-.16-.388-.12-.294-.39.248-.724s.596-.525.31-1.188-.232-1.325.174-2.103c.532-1.02.845-1.234 2.56-1.752 1.6-.484 2.55-.356 3.416.456.24.225.762.527 1.16.67.63.228.757.328.96.762.128.275.235.773.236 1.107.003.746-.4 1.94-.815 2.355-.2.195-.3.45-.3.698 0 .537-.268 1.08-.803 1.632-.25.256-.436.477-.415.49s.625.202 1.342.42c1.705.52 3.154 1.198 3.87 1.81.788.674 1.587 1.927 3.047 4.78l1.237 2.417.165 2.02c.134 1.638.135 2.116.007 2.53-.32 1.043-.653 1.56-1.23 1.915-.5.302-.682.346-1.5.348-.516.001-1.01.045-1.094.098-.117.072-.032.33.342 1.03.675 1.267.69 1.97.06 2.962-.24.38-.7 1.42-.997 2.31s-.67 1.73-.806 1.86c-.36.35-1.294.413-7.325.493-5.13.068-5.288.064-5.5-.165zm-2.247-11.56c-.06-.152-.12-.173-.22-.077-.075.073-.1.227-.054.342.06.152.12.173.22.077.075-.073.1-.227.054-.342z" fill="#a99e9a"/><path d="M127.946 191.002c-.21-.224-.282-.57-1.002-4.693-.24-1.373-.1-1.986.633-2.778.6-.637.66-.894.356-1.315-.14-.195-.32-.268-.652-.27a2.02 2.02 0 0 1-.865-.241c-.224-.132-.49-.24-.594-.24-.288 0-.338-.284-.18-1.028.26-1.214-.134-1.71-.622-.782-.26.497-.46.6-.72.338-.376-.366-.014-1.175.612-1.368.3-.092.39-.435.23-.85-.078-.2-.096-.546-.044-.83.05-.268.102-1.275.116-2.238.038-2.588.16-3.217.92-4.746.573-1.153.718-1.35 1.228-1.663.568-.35 1.997-.848 2.9-1.014l.463-.084v.5c0 .55.168.69.683.563.34-.083.418-.4.125-.5-.14-.052-.167-.183-.11-.524.046-.28.022-.487-.063-.537-.076-.045-.138-.183-.138-.307 0-.32-.285-.374-.45-.086l-.14.244-.136-.246c-.227-.41-.324-1.242-.145-1.242.093 0 .13.095.1.24-.04.15-.004.24.1.24.09 0 .328-.42.53-.935l.366-.935.545-.06c.405-.045.533-.107.498-.24-.026-.1-.055-.35-.066-.56-.03-.62-.593-1.046-.774-.588-.048.123-.246.18-.614.18-.645 0-.877-.257-.996-1.1-.064-.453-.015-.66.296-1.26.43-.825.622-1.01 1.394-1.348 1.03-.45 1.795-.637 2.586-.637.884 0 1.1.087 1.87.74.3.256.797.53 1.118.616.495.133.616.23.856.692.154.295.28.736.28.98 0 .668-.44 1.866-.88 2.4-.22.266-.362.554-.323.653.137.347-.185 1.06-.73 1.61-.64.647-.692.865-.2.855.47-.01 2.653.695 3.633 1.173 1.006.5 1.86 1.213 2.47 2.094.26.373 1.076 1.834 1.815 3.247l1.345 2.568.182 1.97c.18 1.95.18 1.98-.096 2.86-.212.677-.4.993-.747 1.323-.448.414-.518.437-1.57.504-1.172.075-1.537.16-1.537.357 0 .067.224.557.497 1.087.656 1.274.67 1.83.062 2.747-.25.377-.686 1.396-1.025 2.397-.557 1.644-.612 1.75-.998 1.908-.457.186-5.537.395-9.727.4-2.258.002-2.45-.015-2.653-.233zm7.944-2.78c.1-.276-.024-.52-.195-.418-.15.1-.15.658 0 .658.064 0 .15-.108.194-.24zm-3.34-19.394c-.126-.123-.23.062-.127.225.078.123.108.123.15 0 .03-.084.02-.185-.023-.225zm-.01-3.295c.223-.24.222-.252-.042-.51-.254-.247-.284-.25-.48-.06-.172.167-.184.257-.065.51.174.37.288.382.588.06zm-7.52 14.725c0-.066.053-.12.117-.12s.15.054.194.12-.01.12-.117.12-.194-.054-.194-.12zm5.122-16.142c-.29-.247-.53-.51-.528-.587.003-.196.392-.316.544-.168.193.188.33.15.243-.068-.067-.17-.043-.173.195-.03.34.204.438.558.272.982-.07.18-.143.325-.162.323s-.273-.206-.564-.452z" fill="#8f4e47"/><path d="M128.05 191.025c-.2-.127-.276-.423-.616-2.35-.706-4.004-.7-4.11.273-5.175.6-.656.636-.9.222-1.523-.153-.23-.254-.26-.65-.2-.613.095-.828-.143-.782-.866.02-.3-.02-.532-.092-.532-.17 0-.3.402-.194.646.094.237-.274.413-.468.225-.09-.09-.085-.3.02-.736.194-.785.067-1.588-.264-1.672-.387-.098-.195-.318.455-.52.332-.104.624-.246.648-.316.05-.145-.846-.315-1.12-.213-.198.074-.385-.255-.26-.454.043-.068.07-.905.06-1.86-.02-1.874.075-2.113.48-1.223.212.464.667 1.056.813 1.056.06 0-.007-.148-.618-1.388-.36-.73-.555-1.897-.387-2.32.066-.167.158-.07.418.45.23.46.397.653.54.63.114-.018.243.022.287.1.134.2.345.138.255-.087-.046-.116-.138-.49-.204-.834-.1-.572-.096-.648.175-.93.233-.244.327-.278.452-.162s.138-.006.058-.638c-.16-1.25-.137-1.584.113-1.735.18-.108.26-.1.398.092.164.215.187.204.432-.198.187-.308.368-.443.658-.49l.647-.103c.185-.03.26.037.29.262.024.166.095.364.16.44s.15.417.192.758c.094.77.336.75.388-.03.04-.6.12-.652.552-.427.23.12.316.08.675-.3.485-.514.51-.65.132-.703-.186-.026-.273-.115-.26-.265.035-.404-.43-1.277-.76-1.423-.316-.14-.413-.39-.2-.516.062-.037.15-.28.195-.54s.183-.56.306-.668c.206-.18.23-.182.3-.001.043.108.045.395.006.64-.085.53.195 1.25.6 1.518.23.157.27.284.24.792-.026.48.007.606.158.606.427 0 .598-.846.225-1.11-.252-.177-.27-.857-.037-1.28.118-.214.087-.3-.203-.56-.188-.17-.44-.307-.56-.307s-.22-.054-.22-.12.2-.12.443-.12c.388 0 .438-.034.404-.27-.03-.2.03-.28.228-.308.337-.047.69-.76.418-.847-.094-.03-.343-.232-.552-.447-.38-.4-.81-.66-1.05-.66-.07 0-.235.112-.367.25-.338.352-1.012.28-1.225-.13-.468-.903.126-2.396 1.206-3.03.307-.18.676-.333.82-.338s.44-.096.66-.202.717-.22 1.106-.255c.85-.075 1.346.104 2.125.766.302.257.805.548 1.118.648.438.14.62.278.786.603.45.875.167 2.374-.632 3.354-.225.276-.374.56-.33.628.176.277-.124.92-.71 1.522-.637.654-.756 1.097-.28 1.044.362-.04 2.828.766 3.807 1.245 1.678.82 2.247 1.538 4.203 5.298l1.32 2.538.165 2.028c.153 1.872.15 2.08-.054 2.713-.254.793-.684 1.4-1.162 1.636-.184.09-.825.2-1.425.22s-1.153.115-1.23.2c-.104.1-.002.402.4 1.17.692 1.326.724 1.93.148 2.774-.42.616-.523.856-1.24 2.9-.535 1.522-.388 1.42-2.33 1.623-1.382.145-10.48.175-10.697.036zm7.912-2.83c.12-.433-.176-.712-.374-.353-.073.133-.133.357-.133.5 0 .374.395.26.507-.147zm-8.084-6.973c.18-.425.317-.46.412-.108.038.14.142.23.232.2.252-.08.277-.482.04-.65-.155-.1-.18-.205-.092-.357.135-.235.06-.655-.12-.655-.423 0-1.344.782-1.344 1.142 0 .314.33.79.55.79.1 0 .234-.163.32-.362zm-.583-1.776c.313-.247.548-.47.522-.495-.085-.082-.93.234-1.12.42-.2.196-.25.525-.078.525.06 0 .363-.202.677-.45zm15.364-.577c-.165-.194-.497-.247-.497-.08s.15.26.41.26c.202 0 .217-.03.088-.18zm-13.73-3.275c-.2-.143-.25-.14-.34.017-.165.286.006.444.31.286.256-.133.257-.142.03-.303zm2.64.005c-.04-.04-.148-.044-.238-.01-.1.04-.07.067.075.073.13.005.204-.023.163-.063zm2.918-.197c-.2-.098-.32-.096-.43.008s-.043.14.284.133c.402-.008.41-.016.145-.14zm4.28.075c.15-.04.244-.138.2-.223s.06-.608.21-1.165c.308-1.156.48-3.35.232-2.942a4.97 4.97 0 0 1-.532.638c-.32.33-.4.535-.48 1.207-.052.446-.093 1.01-.09 1.253.003.49-.233.748-.335.368-.035-.13-.194-.296-.352-.366-.267-.118-.293-.222-.368-1.432-.143-2.327-.69-2.834-.843-.78-.072.972-.05 1.373.1 1.92.1.38.227.896.26 1.145l.06.452.825-.002c.454-.001.947-.033 1.096-.072zm-1.254-.486c-.043-.11-.053-.223-.022-.253.1-.096.322.097.322.278 0 .237-.204.22-.3-.024zm-9.152-.677c-.01-.418-.03-.457-.102-.21-.083.28-.042.724.066.724.026 0 .042-.23.035-.513zm-.15-1.023c-.032-.117-.06-.05-.062.15s.023.295.057.213.036-.245.005-.362zm4.386-1.336c0-.36-.196-.627-.46-.627-.2 0-.207.254-.017.658.194.415.477.396.477-.03zm-4.638-.175c-.034-.083-.063-.015-.063.15s.028.234.063.15.034-.22 0-.302zm6.79-.953c.54-.277.6-.585.113-.585-.495 0-.953.332-.764.554.176.206.297.212.65.03zm-1.162-1.275c.002-.08-.17-.34-.38-.573-.387-.428-1-.585-1.17-.304-.107.168.365.884.837 1.27l.387.316.16-.28c.088-.155.163-.347.165-.428zm-9.3 10.19c-.124-.32.018-.635.365-.816.22-.114.246-.09.246.246 0 .417-.192.84-.38.84-.068 0-.17-.122-.23-.27zm5.512-16.025c-.145-.228.043-.264.335-.065l.284.193h-.27c-.148 0-.306-.058-.35-.13z" fill="#5a261e"/><path d="M128.08 190.96c-.14-.102-.325-.874-.635-2.648-.616-3.53-.594-3.834.337-4.76.523-.52.65-.97.435-1.546-.074-.2-.02-.27.297-.387l.387-.142-.1-.94c-.05-.517-.12-.986-.154-1.043-.098-.156-.755.01-1.163.29-.2.138-.362.193-.362.123s.278-.305.62-.52.62-.468.62-.56c.003-.248-.973-.088-1.73.284-.898.442-.947.168-.105-.592.532-.48.73-.593.88-.5.124.076.363.078.67.005.362-.087.485-.182.517-.398.06-.41-.082-.863-.27-.863-.25 0-.788-.606-1.185-1.332l-.868-1.564c-.682-1.215-.706-1.77-.034-.773.264.392.744.923 1.067 1.18.656.523 1.06 1.09 1.06 1.486.001.353.193.45.598.298.19-.07 2.746-.185 5.895-.264l5.9-.233c.328-.1.323-.096-.158-.178-1.038-.176-1.098-.236-1.015-1.01l.197-1.463c.098-.62.188-2.762.14-3.33-.006-.066-.116.013-.246.177-.165.21-.36.3-.65.302-.383.004-.423.042-.54.513-.226.912-.597.995-.74.166-.073-.417-.13-.48-.504-.547a1.26 1.26 0 0 0-.81.118c-.447.225-.738.16-.738-.16 0-.35-.09-.37-.83-.184-.832.21-1.034.154-1.034-.292 0-.4-.767-1.237-1.132-1.237-.386 0-.266-.19.268-.425.276-.12.59-.36.695-.53s.367-.42.58-.552a3.1 3.1 0 0 0 .723-.724c.187-.268.438-.483.564-.483.187 0 .228.097.228.543 0 .535.006.543.393.514.216-.016 1.045.192 1.842.46 2.975 1.007 3.835 1.763 5.344 4.696l1.34 2.465c.542.935.64 1.206.734 2.05l.183 1.517c.242 1.76-.11 3.214-.945 3.895-.33.27-.525.33-1.106.333-.83.006-1.73.16-1.9.323-.076.074.073.475.414 1.112.446.833.533 1.107.53 1.678s-.067.774-.408 1.25c-.247.344-.624 1.22-.96 2.227-.305.913-.63 1.734-.722 1.824-.26.253-2.258.37-7.49.435-3.55.045-4.787.024-4.935-.084zm7.868-2.488a1.36 1.36 0 0 0 .129-.551c0-.26-.05-.31-.274-.28-.287.04-.47.463-.372.853.072.28.357.27.517-.022zm-6.703-4.895c0-.1-.084-.18-.186-.18s-.186.08-.186.18.084.18.186.18.186-.08.186-.18zm-.497-1.388c0-.066-.06-.12-.132-.12s-.097.054-.055.12.1.12.132.12.055-.054.055-.12zm13.2-1.904c-.037-.338.7-.676 1.244-.562l.357.076-.207-.4c-.17-.32-.178-.408-.04-.496a.58.58 0 0 1 .384-.056c.444.103.33-.16-.12-.282-1-.27-1.773-.118-1.773.35 0 .103-.104.25-.23.328-.34.206-.444.867-.18 1.15.276.296.607.227.57-.12zm2.312-2.633c.554-.122.885-.254.885-.355 0-.27-.157-.283-1.06-.09-1.068.228-1.426.357-1.426.517 0 .178.584.152 1.6-.07zm-1.47-2.098c.6-1.216.672-1.478.667-2.123-.006-.76-.336-1.6-.666-1.717-.13-.042-.147.074-.083.536.257 1.86.257 1.862-.2 2.944-.425 1.005-.72 2.11-.5 1.868.06-.066.413-.745.783-1.508zm-6.698-7.923c-.094-.338-.095-.337-.174.13-.044.26-.044.526-.001.594.135.212.274-.365.175-.723zm-9.28 14.028c-.12-.306.002-.454.166-.2.097.15.108.264.03.3-.067.04-.155-.01-.195-.11zm-1.043-.615c0-.1.056-.18.124-.18s.124.08.124.18-.056.18-.124.18-.124-.08-.124-.18zm-1.422-1.377c-.107-.168.06-.494.255-.494.188 0 .215.115.098.412-.084.212-.245.25-.352.08zm3.036-2.615c0-.105.066-.17.148-.143.23.075.27.334.05.334-.108 0-.197-.086-.197-.19zm-1.78-.14c-.13-.217-.225-2.202-.105-2.202.156 0 .644 1.225.733 1.84.06.422.044.452-.254.452-.176 0-.344-.04-.374-.1zm3.583-1.63l-.258-.754c-.114-.332-.224-.983-.245-1.448a5.53 5.53 0 0 0-.343-1.629c-.398-1.026-.766-2.523-.646-2.63.052-.047.123-.003.16.096.083.23.755.845.923.845.077 0 .098-.178.052-.452-.09-.54.02-1.024.214-.96.08.026.14.32.14.687 0 .79.2.904.57.312.32-.528.482-.46.5.21.026.995.284 2.07.506 2.11.147.027.22-.06.248-.29.07-.58.32-.455.537.273.183.612.37 1.004 1.03 2.17.09.157.21.285.267.285s.166.15.24.332.205.428.292.546c.22.3-.05.445-.837.445-.73 0-.83-.052-1.1-.563-.258-.488-1.416-1.847-1.575-1.847-.24 0-.108.424.44 1.408l.56 1.005h-.812c-.54 0-.83-.05-.863-.15zm5.73-1.026l-.132-.53c-.093-.408-.403-.522-.775-.285-.16.103-.293.134-.293.07s.06-.153.135-.197c.088-.053.112-.412.07-1.033-.072-1.06-.053-1.1.82-1.243.374-.066.466-.045.466.105 0 .237.173.24.373.005.342-.4.497-.21.497.607 0 .606-.073.93-.316 1.395-.2.384-.287.698-.235.856s.016.29-.087.353c-.266.164-.457.125-.52-.104zm-7.394-1.2c-.27-.637-.363-1.1-.26-1.254.15-.234.235-.104.445.68.202.75.066 1.17-.186.575zm5.57-2.394c-.212-.248-.093-.332.187-.134.14.1.177.19.098.24-.07.043-.2-.005-.285-.105zm-.928-3.917c-.042-.066-.018-.12.055-.12s.132.054.132.12-.025.12-.055.12-.09-.054-.132-.12zm-.725-.804c-.046-.044-.08-.22-.08-.392.004-.3.01-.303.186-.077.28.36.188.757-.107.47zm4.425-.764c-.078-.3-.2-.3-.587-.054-.3.185-.294.18-.294-.246 0-.238-.145-.72-.323-1.074s-.323-.724-.323-.826c0-.248-.228-.417-1.148-.847-.963-.45-2.08-.555-2.08-.195 0 .296-.57.306-.725.014-.3-.563-.285-1.1.045-1.75.18-.348.413-.726.52-.84.204-.22 1.14-.697 1.366-.697.073 0 .377-.107.675-.24.584-.257 1.737-.324 2.26-.13.168.062.584.353.925.648.366.316.797.567 1.052.614.517.094.773.348.935.927.133.476.058 1.648-.112 1.75-.06.036-.108.165-.108.288s-.223.498-.496.833c-.308.378-.485.714-.466.886s-.03.264-.125.246-.155.106-.155.328c0 .54-.704.85-.834.366z" fill="#301009"/><path d="M128.02 190.785c-.218-.4-1.018-5.4-.933-5.83.117-.594.383-1.057.855-1.487.227-.206.43-.48.454-.606s.108-.253.2-.28c.1-.032.16.162.186.593.033.56.073.646.317.68.21.03.28-.02.28-.205 0-.134-.078-.287-.173-.34-.14-.078-.182-.722-.217-3.326l-.044-3.23.348-.176c.24-.12.606-.16 1.18-.125.684.042.876.1 1.08.336.304.35.895.42.956.117.027-.134.174-.22.412-.237l1.427-.137c.83-.086 1.084-.075 1.187.05.083.1.427.16.932.164l1.94.062c.895.044 1.172.02 1.288-.118.242-.283 1.047-.222 1.277.097l.195.27.007-.288c.004-.158.073-.504.155-.77.132-.43.123-.5-.086-.647a1.05 1.05 0 0 0-.517-.166c-.163 0-.344-.11-.427-.262-.166-.302-.205-3.295-.056-4.308.133-.902.312-.56.314.6.002.732.062 1.026.298 1.458.163.298.334.71.38.915s.165.438.263.517.178.22.178.3c0 .22.18.212.373-.015.207-.243.373-.23.373.03 0 .29-.645 2.024-.985 2.648-.327.6-.305 1.054.053 1.08l.435.03c.115.008-.016.192-.342.482-.51.452-.528.494-.52 1.176.006.642.042.735.387 1 .42.323.687.26.908-.21.174-.372.79-.56 1.058-.325.4.343.538.228.455-.356-.063-.444-.044-.526.107-.47.1.038.183.008.183-.065 0-.2.384-.16.643.067.276.243.465.11.25-.176l-.412-.598c-.228-.347-.324-.393-.836-.4-1.13-.017-1.08-.174.126-.4l1.344-.236c.216-.02.27.29.294 1.67.03 1.84-.747 2.834-2.215 2.837-1.037.002-1.688.123-1.77.328-.038.096.177.638.477 1.205.704 1.33.72 1.852.084 2.81-.253.382-.665 1.34-.967 2.248l-.624 1.737c-.197.3-2.674.463-7.6.47-4.458.007-4.817-.008-4.924-.204zm7.902-2.112c.235-.284.3-.887.113-1.04-.274-.22-.566-.034-.653.418-.11.577.24.98.54.62zm-4.575-11.376c.153-.146.15-.18-.032-.247-.23-.086-.828.238-.828.447 0 .17.623.026.86-.2zm-4.587 1.39c.102-.064.298-.114.435-.1l.248.007-.248.104c-.137.057-.332.107-.435.1-.166.006-.166-.006 0-.1zm15.75-1.513c-.093-.1.366-1.265.622-1.593.194-.248.25-.258.7-.127.264.08.568.274.676.435.173.256.175.328.018.595-.137.233-.384.356-1.048.526l-.88.225c-.006.002-.04-.026-.077-.062zm-14.664-1.25c-.188-.217-.312-.443-.274-.502s-.032-.256-.154-.438l-.223-.33.396.284c.425.305.708.822.64 1.168-.035.175-.104.143-.384-.182zm16.873-.6c-.054-.084-.064-.185-.023-.225.11-.108.232.05.172.226-.042.123-.07.123-.15 0zm-8.643-5.724c0-.096.118-.433.262-.75.214-.47.247-.707.18-1.28-.07-.59-.053-.694.1-.636a.5.5 0 0 1 .254.247c.04.1.124.147.2.108.232-.14.402.425.314 1.045-.058.41-.192.716-.414.945-.4.404-.887.584-.887.322zm2.044-.936c-.134-.2.02-.255.19-.055.098.115.107.184.025.184-.073 0-.17-.058-.214-.13zm-2.976-5c-.273-.3-.53-.668-.574-.82-.138-.495-.5-.92-.785-.92-.15 0-.522-.077-.824-.17-1.27-.395-2.184-.312-2.076.188.02.095-.07.164-.213.164-.203 0-.27-.117-.36-.64-.097-.555-.074-.718.175-1.234.313-.65.638-.998 1.117-1.195l.497-.235c.33-.188 1.4-.476 2.066-.55.798-.1 1.103.022 1.878.7.4.345.822.582 1.2.675.49.12.613.2.763.558.37.858.06 2.478-.608 3.18-.29.304-1.338.866-1.6.858-.088-.003-.383-.25-.656-.55z" fill="#0d0c06"/><path d="M244.502 180.2h.748v-14.264h2.46v-4.233h-5.98v4.233h2.773z" fill="#67676b"/><defs ><path id="B" d="M91.808 248.172h1.553v1.553h-1.553z"/><path id="C" d="M147.272 244.886h1.723v1.723h-1.723z"/><path id="D" d="M164.74 258.186h2.052v1.948h-2.052z"/><path id="E" d="M127.512 246.72h1.822v1.62h-1.822z"/><path id="F" d="M-426.603 314.627a6.89 6.89 0 0 1-11.48 7.292 6.89 6.89 0 1 0 11.48-7.292z"/></defs></svg>